<?xml version="1.0" standalone="no"?>
  <!DOCTYPE svg PUBLIC "-//W3C//DTD SVG 1.1//EN" "http://www.w3.org/Graphics/SVG/1.1/DTD/svg11.dtd" >
  <svg>
  <metadata>
  Created by font-carrier
  </metadata>
  <defs>
  <font id="ArialMT" horiz-adv-x="4096" vert-adv-y="4096" >
    <font-face
      
      font-family="Arial"
      
      font-weight="400"
      
      font-stretch="normal"
      
      units-per-em="2048"
      
      ascent="1854"
      
      descent="-434"
      
    />
      <missing-glyph />

      

      
      <glyph glyph-name="uni21" unicode="&#x21;" d="M231 364L176 1141L176 1466L399 1466L399 1141L347 364L231 364M184 0L184 205L391 205L391 0L184 0Z"  horiz-adv-x="569" vert-adv-y="2048"  />

      
      <glyph glyph-name="uni22" unicode="&#x22;" d="M144 947L94 1226L94 1466L299 1466L299 1226L254 947L144 947M475 947L426 1226L426 1466L631 1466L631 1226L583 947L475 947Z"  horiz-adv-x="727" vert-adv-y="2048"  />

      
      <glyph glyph-name="uni23" unicode="&#x23;" d="M103-25L190 401L21 401L21 550L220 550L294 913L21 913L21 1062L324 1062L411 1491L561 1491L474 1062L789 1062L876 1491L1027 1491L940 1062L1113 1062L1113 913L910 913L835 550L1113 550L1113 401L805 401L718-25L568-25L654 401L340 401L253-25L103-25M370 550L684 550L759 913L444 913L370 550Z"  horiz-adv-x="1139" vert-adv-y="2048"  />

      
      <glyph glyph-name="uni24" unicode="&#x24;" d="M510-211L510-31Q375-14 290.50 29.50Q206 73 144.50 170Q83 267 73 407L254 441Q275 296 328 228Q404 132 510 121L510 694Q399 715 283 780Q197 828 150.50 913Q104 998 104 1106Q104 1298 240 1417Q331 1497 510 1515L510 1601L616 1601L616 1515Q773 1500 865 1423Q983 1325 1007 1154L821 1126Q805 1232 754.50 1288.50Q704 1345 616 1363L616 844Q752 810 796 791Q880 754 933 701Q986 648 1014.50 575Q1043 502 1043 417Q1043 230 924 105Q805-20 616-29L616-211L510-211M510 1365Q405 1349 344.50 1281Q284 1213 284 1120Q284 1028 335.50 966Q387 904 510 867L510 1365M616 121Q721 134 789.50 212Q858 290 858 405Q858 503 809.50 562.50Q761 622 616 669L616 121Z"  horiz-adv-x="1139" vert-adv-y="2048"  />

      
      <glyph glyph-name="uni25" unicode="&#x25;" d="M119 1114Q119 1271 198 1381Q277 1491 427 1491Q565 1491 655.50 1392.50Q746 1294 746 1103Q746 917 654.50 816.50Q563 716 429 716Q296 716 207.50 815Q119 914 119 1114M432 1367Q365 1367 320.50 1309Q276 1251 276 1096Q276 955 321 897.50Q366 840 432 840Q500 840 544.50 898Q589 956 589 1110Q589 1252 544 1309.50Q499 1367 432 1367M433-54L1235 1491L1381 1491L582-54L433-54M1067 344Q1067 502 1146 611.50Q1225 721 1376 721Q1514 721 1604.50 622.50Q1695 524 1695 333Q1695 147 1603.50 46.50Q1512-54 1377-54Q1244-54 1155.50 45.50Q1067 145 1067 344M1381 597Q1313 597 1268.50 539Q1224 481 1224 326Q1224 186 1269 128Q1314 70 1380 70Q1449 70 1493.50 128Q1538 186 1538 340Q1538 482 1493 539.50Q1448 597 1381 597Z"  horiz-adv-x="1821" vert-adv-y="2048"  />

      
      <glyph glyph-name="uni26" unicode="&#x26;" d="M973 173Q884 74 779 24.50Q674-25 552-25Q327-25 195 127Q88 251 88 404Q88 540 175.50 649.50Q263 759 437 842Q338 956 305 1027Q272 1098 272 1164Q272 1296 375.50 1393.50Q479 1491 636 1491Q786 1491 881.50 1399Q977 1307 977 1178Q977 969 700 821L963 486Q1008 574 1033 690L1220 650Q1172 458 1090 334Q1191 200 1319 109L1198-34Q1089 36 973 173M607 937Q724 1006 758.50 1058Q793 1110 793 1173Q793 1248 745.50 1295.50Q698 1343 627 1343Q554 1343 505.50 1296Q457 1249 457 1181Q457 1147 474.50 1109.50Q492 1072 527 1030L607 937M860 315L530 724Q384 637 333 562.50Q282 488 282 415Q282 326 353 230Q424 134 554 134Q635 134 721.50 184.50Q808 235 860 315Z"  horiz-adv-x="1366" vert-adv-y="2048"  />

      
      <glyph glyph-name="uni27" unicode="&#x27;" d="M136 947L90 1221L90 1466L295 1466L295 1221L247 947L136 947Z"  horiz-adv-x="391" vert-adv-y="2048"  />

      
      <glyph glyph-name="uni28" unicode="&#x28;" d="M479-431Q330-243 227 9Q124 261 124 531Q124 769 201 987Q291 1240 479 1491L608 1491Q487 1283 448 1194Q387 1056 352 906Q309 719 309 530Q309 49 608-431L479-431Z"  horiz-adv-x="682" vert-adv-y="2048"  />

      
      <glyph glyph-name="uni29" unicode="&#x29;" d="M253-431L124-431Q423 49 423 530Q423 718 380 903Q346 1053 285 1191Q246 1281 124 1491L253 1491Q441 1240 531 987Q608 769 608 531Q608 261 504.50 9Q401-243 253-431Z"  horiz-adv-x="682" vert-adv-y="2048"  />

      
      <glyph glyph-name="uni2a" unicode="&#x2a;" d="M64 1197L110 1339Q269 1283 341 1242Q322 1423 321 1491L466 1491Q463 1392 443 1243Q546 1295 679 1339L725 1197Q598 1155 476 1141Q537 1088 648 952L528 867Q470 946 391 1082Q317 941 261 867L143 952Q259 1095 309 1141Q180 1166 64 1197Z"  horiz-adv-x="797" vert-adv-y="2048"  />

      
      <glyph glyph-name="uni2b" unicode="&#x2b;" d="M513 237L513 639L114 639L114 807L513 807L513 1206L683 1206L683 807L1082 807L1082 639L683 639L683 237L513 237Z"  horiz-adv-x="1196" vert-adv-y="2048"  />

      
      <glyph glyph-name="uni2c" unicode="&#x2c;" d="M182 0L182 205L387 205L387 0Q387-113 347-182.50Q307-252 220-290L170-213Q227-188 254-139.50Q281-91 284 0L182 0Z"  horiz-adv-x="569" vert-adv-y="2048"  />

      
      <glyph glyph-name="uni2d" unicode="&#x2d;" d="M65 440L65 621L618 621L618 440L65 440Z"  horiz-adv-x="682" vert-adv-y="2048"  />

      
      <glyph glyph-name="uniad" unicode="&#xad;" d="M65 440L65 621L618 621L618 440L65 440Z"  horiz-adv-x="682" vert-adv-y="2048"  />

      
      <glyph glyph-name="uni2e" unicode="&#x2e;" d="M186 0L186 205L391 205L391 0L186 0Z"  horiz-adv-x="569" vert-adv-y="2048"  />

      
      <glyph glyph-name="uni2f" unicode="&#x2f;" d="M0-25L425 1491L569 1491L145-25L0-25Z"  horiz-adv-x="569" vert-adv-y="2048"  />

      
      <glyph glyph-name="uni30" unicode="&#x30;" d="M85 723Q85 983 138.50 1141.50Q192 1300 297.50 1386Q403 1472 563 1472Q681 1472 770 1424.50Q859 1377 917 1287.50Q975 1198 1008 1069.50Q1041 941 1041 723Q1041 465 988 306.50Q935 148 829.50 61.50Q724-25 563-25Q351-25 230 127Q85 310 85 723M270 723Q270 362 354.50 242.50Q439 123 563 123Q687 123 771.50 243Q856 363 856 723Q856 1085 771.50 1204Q687 1323 561 1323Q437 1323 363 1218Q270 1084 270 723Z"  horiz-adv-x="1139" vert-adv-y="2048"  />

      
      <glyph glyph-name="uni31" unicode="&#x31;" d="M763 0L583 0L583 1147Q518 1085 412.50 1023Q307 961 223 930L223 1104Q374 1175 487 1276Q600 1377 647 1472L763 1472L763 0Z"  horiz-adv-x="1139" vert-adv-y="2048"  />

      
      <glyph glyph-name="uni32" unicode="&#x32;" d="M1031 173L1031 0L62 0Q60 65 83 125Q120 224 201.50 320Q283 416 437 542Q676 738 760 852.50Q844 967 844 1069Q844 1176 767.50 1249.50Q691 1323 568 1323Q438 1323 360 1245Q282 1167 281 1029L96 1048Q115 1255 239 1363.50Q363 1472 572 1472Q783 1472 906 1355Q1029 1238 1029 1065Q1029 977 993 892Q957 807 873.50 713Q790 619 596 455Q434 319 388 270.50Q342 222 312 173L1031 173Z"  horiz-adv-x="1139" vert-adv-y="2048"  />

      
      <glyph glyph-name="uni33" unicode="&#x33;" d="M86 387L266 411Q297 258 371.50 190.50Q446 123 553 123Q680 123 767.50 211Q855 299 855 429Q855 553 774 633.50Q693 714 568 714Q517 714 441 694L461 852Q479 850 490 850Q605 850 697 910Q789 970 789 1095Q789 1194 722 1259Q655 1324 549 1324Q444 1324 374 1258Q304 1192 284 1060L104 1092Q137 1273 254 1372.50Q371 1472 545 1472Q665 1472 766 1420.50Q867 1369 920.50 1280Q974 1191 974 1091Q974 996 923 918Q872 840 772 794Q902 764 974 669.50Q1046 575 1046 433Q1046 241 906 107.50Q766-26 552-26Q359-26 231.50 89Q104 204 86 387Z"  horiz-adv-x="1139" vert-adv-y="2048"  />

      
      <glyph glyph-name="uni34" unicode="&#x34;" d="M662 0L662 351L26 351L26 516L695 1466L842 1466L842 516L1040 516L1040 351L842 351L842 0L662 0M662 516L662 1177L203 516L662 516Z"  horiz-adv-x="1139" vert-adv-y="2048"  />

      
      <glyph glyph-name="uni35" unicode="&#x35;" d="M85 384L274 400Q295 262 371.50 192.50Q448 123 556 123Q686 123 776 221Q866 319 866 481Q866 635 779.50 724Q693 813 553 813Q466 813 396 773.50Q326 734 286 671L117 693L259 1446L988 1446L988 1274L403 1274L324 880Q456 972 601 972Q793 972 925 839Q1057 706 1057 497Q1057 298 941 153Q800-25 556-25Q356-25 229.50 87Q103 199 85 384Z"  horiz-adv-x="1139" vert-adv-y="2048"  />

      
      <glyph glyph-name="uni36" unicode="&#x36;" d="M1019 1107L840 1093Q816 1199 772 1247Q699 1324 592 1324Q506 1324 441 1276Q356 1214 307 1095Q258 976 256 756Q321 855 415 903Q509 951 612 951Q792 951 918.50 818.50Q1045 686 1045 476Q1045 338 985.50 219.50Q926 101 822 38Q718-25 586-25Q361-25 219 140.50Q77 306 77 686Q77 1111 234 1304Q371 1472 603 1472Q776 1472 886.50 1375Q997 1278 1019 1107M284 475Q284 382 323.50 297Q363 212 434 167.50Q505 123 583 123Q697 123 779 215Q861 307 861 465Q861 617 780 704.50Q699 792 576 792Q454 792 369 704.50Q284 617 284 475Z"  horiz-adv-x="1139" vert-adv-y="2048"  />

      
      <glyph glyph-name="uni37" unicode="&#x37;" d="M97 1274L97 1447L1046 1447L1046 1307Q906 1158 768.50 911Q631 664 556 403Q502 219 487 0L302 0Q305 173 370 418Q435 663 556.50 890.50Q678 1118 815 1274L97 1274Z"  horiz-adv-x="1139" vert-adv-y="2048"  />

      
      <glyph glyph-name="uni38" unicode="&#x38;" d="M362 795Q250 836 196 912Q142 988 142 1094Q142 1254 257 1363Q372 1472 563 1472Q755 1472 872 1360.50Q989 1249 989 1089Q989 987 935.50 911.50Q882 836 773 795Q908 751 978.50 653Q1049 555 1049 419Q1049 231 916 103Q783-25 566-25Q349-25 216 103.50Q83 232 83 424Q83 567 155.50 663.50Q228 760 362 795M326 1100Q326 996 393 930Q460 864 567 864Q671 864 737.50 929.50Q804 995 804 1090Q804 1189 735.50 1256.50Q667 1324 565 1324Q462 1324 394 1258Q326 1192 326 1100M268 423Q268 346 304.50 274Q341 202 413 162.50Q485 123 568 123Q697 123 781 206Q865 289 865 417Q865 547 778.50 632Q692 717 562 717Q435 717 351.50 633Q268 549 268 423Z"  horiz-adv-x="1139" vert-adv-y="2048"  />

      
      <glyph glyph-name="uni39" unicode="&#x39;" d="M112 339L285 355Q307 233 369 178Q431 123 528 123Q611 123 673.50 161Q736 199 776 262.50Q816 326 843 434Q870 542 870 654Q870 666 869 690Q815 604 721.50 550.50Q628 497 519 497Q337 497 211 629Q85 761 85 977Q85 1200 216.50 1336Q348 1472 546 1472Q689 1472 807.50 1395Q926 1318 987.50 1175.50Q1049 1033 1049 763Q1049 482 988 315.50Q927 149 806.50 62Q686-25 524-25Q352-25 243 70.50Q134 166 112 339M849 986Q849 1141 766.50 1232Q684 1323 568 1323Q448 1323 359 1225Q270 1127 270 971Q270 831 354.50 743.50Q439 656 563 656Q688 656 768.50 743.50Q849 831 849 986Z"  horiz-adv-x="1139" vert-adv-y="2048"  />

      
      <glyph glyph-name="uni3a" unicode="&#x3a;" d="M185 857L185 1062L390 1062L390 857L185 857M185 0L185 205L390 205L390 0L185 0Z"  horiz-adv-x="569" vert-adv-y="2048"  />

      
      <glyph glyph-name="uni3b" unicode="&#x3b;" d="M182 857L182 1062L387 1062L387 857L182 857M182 0L182 205L387 205L387 0Q387-113 347-182.50Q307-252 220-290L170-213Q227-188 254-139.50Q281-91 284 0L182 0Z"  horiz-adv-x="569" vert-adv-y="2048"  />

      
      <glyph glyph-name="uni037E" unicode="&#x037E;" d="M182 857L182 1062L387 1062L387 857L182 857M182 0L182 205L387 205L387 0Q387-113 347-182.50Q307-252 220-290L170-213Q227-188 254-139.50Q281-91 284 0L182 0Z"  horiz-adv-x="569" vert-adv-y="2048"  />

      
      <glyph glyph-name="uni3c" unicode="&#x3c;" d="M112 641L112 809L1083 1219L1083 1040L313 724L1083 405L1083 226L112 641Z"  horiz-adv-x="1196" vert-adv-y="2048"  />

      
      <glyph glyph-name="uni3d" unicode="&#x3d;" d="M1082 862L114 862L114 1030L1082 1030L1082 862M1082 417L114 417L114 585L1082 585L1082 417Z"  horiz-adv-x="1196" vert-adv-y="2048"  />

      
      <glyph glyph-name="uni3e" unicode="&#x3e;" d="M1083 641L112 226L112 405L881 724L112 1040L112 1219L1083 809L1083 641Z"  horiz-adv-x="1196" vert-adv-y="2048"  />

      
      <glyph glyph-name="uni3f" unicode="&#x3f;" d="M472 361Q471 397 471 415Q471 521 501 598Q523 656 572 715Q608 758 701.50 840.50Q795 923 823 972Q851 1021 851 1079Q851 1184 769 1263.50Q687 1343 568 1343Q453 1343 376 1271Q299 1199 275 1046L90 1068Q115 1273 238.50 1382Q362 1491 565 1491Q780 1491 908 1374Q1036 1257 1036 1091Q1036 995 991 914Q946 833 815 717Q727 639 700 602Q673 565 660 517Q647 469 645 361L472 361M461 0L461 205L666 205L666 0L461 0Z"  horiz-adv-x="1139" vert-adv-y="2048"  />

      
      <glyph glyph-name="uni40" unicode="&#x40;" d="M1161 163Q1096 88 1015.50 42.50Q935-3 854-3Q765-3 681 49Q597 101 544.50 209Q492 317 492 446Q492 605 573.50 764.50Q655 924 776 1004Q897 1084 1011 1084Q1098 1084 1177 1038.50Q1256 993 1313 900L1347 1055L1526 1055L1382 384Q1352 244 1352 229Q1352 202 1372.50 182.50Q1393 163 1422 163Q1475 163 1561 224Q1675 304 1741.50 438.50Q1808 573 1808 716Q1808 883 1722.50 1028Q1637 1173 1467.50 1260Q1298 1347 1093 1347Q859 1347 665.50 1237.50Q472 1128 365.50 923.50Q259 719 259 485Q259 240 365.50 63Q472-114 673.50-198.50Q875-283 1120-283Q1382-283 1559-195Q1736-107 1824 19L2005 19Q1954-86 1830-195Q1706-304 1535-367.50Q1364-431 1123-431Q901-431 713.50-374Q526-317 394-202.50Q262-88 195 61Q111 250 111 469Q111 713 211 934Q333 1205 557.50 1349Q782 1493 1102 1493Q1350 1493 1547.50 1391.50Q1745 1290 1859 1089Q1956 916 1956 713Q1956 423 1752 198Q1570-4 1354-4Q1285-4 1242.50 17Q1200 38 1180 77Q1167 102 1161 163M677 434Q677 297 742 221Q807 145 891 145Q947 145 1009 178.50Q1071 212 1127.50 278Q1184 344 1220 445.50Q1256 547 1256 649Q1256 785 1188.50 860Q1121 935 1024 935Q960 935 903.50 902.50Q847 870 794 798Q741 726 709 623Q677 520 677 434Z"  horiz-adv-x="2079" vert-adv-y="2048"  />

      
      <glyph glyph-name="uni41" unicode="&#x41;" d="M-3 0L560 1466L769 1466L1369 0L1148 0L977 444L364 444L203 0L-3 0M420 602L917 602L764 1008Q694 1193 660 1312Q632 1171 581 1032L420 602Z"  horiz-adv-x="1366" vert-adv-y="2048"  />

      
      <glyph glyph-name="uni42" unicode="&#x42;" d="M150 0L150 1466L700 1466Q868 1466 969.50 1421.50Q1071 1377 1128.50 1284.50Q1186 1192 1186 1091Q1186 997 1135 914Q1084 831 981 780Q1114 741 1185.50 647Q1257 553 1257 425Q1257 322 1213.50 233.50Q1170 145 1106 97Q1042 49 945.50 24.50Q849 0 709 0L150 0M344 850L661 850Q790 850 846 867Q920 889 957.50 940Q995 991 995 1068Q995 1141 960 1196.50Q925 1252 860 1272.50Q795 1293 637 1293L344 1293L344 850M344 173L709 173Q803 173 841 180Q908 192 953 220Q998 248 1027 301.50Q1056 355 1056 425Q1056 507 1014 567.50Q972 628 897.50 652.50Q823 677 683 677L344 677L344 173Z"  horiz-adv-x="1366" vert-adv-y="2048"  />

      
      <glyph glyph-name="uni43" unicode="&#x43;" d="M1204 514L1398 465Q1337 226 1178.50 100.50Q1020-25 791-25Q554-25 405.50 71.50Q257 168 179.50 351Q102 534 102 744Q102 973 189.50 1143.50Q277 1314 438.50 1402.50Q600 1491 794 1491Q1014 1491 1164 1379Q1314 1267 1373 1064L1182 1019Q1131 1179 1034 1252Q937 1325 790 1325Q621 1325 507.50 1244Q394 1163 348 1026.50Q302 890 302 745Q302 558 356.50 418.50Q411 279 526 210Q641 141 775 141Q938 141 1051 235Q1164 329 1204 514Z"  horiz-adv-x="1479" vert-adv-y="2048"  />

      
      <glyph glyph-name="uni44" unicode="&#x44;" d="M158 0L158 1466L663 1466Q834 1466 924 1445Q1050 1416 1139 1340Q1255 1242 1312.50 1089.50Q1370 937 1370 741Q1370 574 1331 445Q1292 316 1231 231.50Q1170 147 1097.50 98.50Q1025 50 922.50 25Q820 0 687 0L158 0M352 173L665 173Q810 173 892.50 200Q975 227 1024 276Q1093 345 1131.50 461.50Q1170 578 1170 744Q1170 974 1094.50 1097.50Q1019 1221 911 1263Q833 1293 660 1293L352 1293L352 173Z"  horiz-adv-x="1479" vert-adv-y="2048"  />

      
      <glyph glyph-name="uni45" unicode="&#x45;" d="M162 0L162 1466L1222 1466L1222 1293L356 1293L356 844L1167 844L1167 672L356 672L356 173L1256 173L1256 0L162 0Z"  horiz-adv-x="1366" vert-adv-y="2048"  />

      
      <glyph glyph-name="uni46" unicode="&#x46;" d="M168 0L168 1466L1157 1466L1157 1293L362 1293L362 839L1050 839L1050 666L362 666L362 0L168 0Z"  horiz-adv-x="1251" vert-adv-y="2048"  />

      
      <glyph glyph-name="uni47" unicode="&#x47;" d="M844 575L844 747L1465 748L1465 204Q1322 90 1170 32.50Q1018-25 858-25Q642-25 465.50 67.50Q289 160 199 335Q109 510 109 726Q109 940 198.50 1125.50Q288 1311 456 1401Q624 1491 843 1491Q1002 1491 1130.50 1439.50Q1259 1388 1332 1296Q1405 1204 1443 1056L1268 1008Q1235 1120 1186 1184Q1137 1248 1046 1286.50Q955 1325 844 1325Q711 1325 614 1284.50Q517 1244 457.50 1178Q398 1112 365 1033Q309 897 309 738Q309 542 376.50 410Q444 278 573 214Q702 150 847 150Q973 150 1093 198.50Q1213 247 1275 302L1275 575L844 575Z"  horiz-adv-x="1593" vert-adv-y="2048"  />

      
      <glyph glyph-name="uni48" unicode="&#x48;" d="M164 0L164 1466L358 1466L358 864L1120 864L1120 1466L1314 1466L1314 0L1120 0L1120 691L358 691L358 0L164 0Z"  horiz-adv-x="1479" vert-adv-y="2048"  />

      
      <glyph glyph-name="uni49" unicode="&#x49;" d="M191 0L191 1466L385 1466L385 0L191 0Z"  horiz-adv-x="569" vert-adv-y="2048"  />

      
      <glyph glyph-name="uni4a" unicode="&#x4a;" d="M59 416L234 440Q241 272 297 210Q353 148 452 148Q525 148 578 181.50Q631 215 651 272.50Q671 330 671 456L671 1466L865 1466L865 467Q865 283 820.50 182Q776 81 679.50 28Q583-25 453-25Q260-25 157.50 86Q55 197 59 416Z"  horiz-adv-x="1024" vert-adv-y="2048"  />

      
      <glyph glyph-name="uni4b" unicode="&#x4b;" d="M150 0L150 1466L344 1466L344 739L1072 1466L1335 1466L720 872L1362 0L1106 0L584 742L344 508L344 0L150 0Z"  horiz-adv-x="1366" vert-adv-y="2048"  />

      
      <glyph glyph-name="uni4c" unicode="&#x4c;" d="M150 0L150 1466L344 1466L344 173L1066 173L1066 0L150 0Z"  horiz-adv-x="1139" vert-adv-y="2048"  />

      
      <glyph glyph-name="uni4d" unicode="&#x4d;" d="M152 0L152 1466L444 1466L791 428Q839 283 861 211Q886 291 939 446L1290 1466L1551 1466L1551 0L1364 0L1364 1227L938 0L763 0L339 1248L339 0L152 0Z"  horiz-adv-x="1706" vert-adv-y="2048"  />

      
      <glyph glyph-name="uni4e" unicode="&#x4e;" d="M156 0L156 1466L355 1466L1125 315L1125 1466L1311 1466L1311 0L1112 0L342 1152L342 0L156 0Z"  horiz-adv-x="1479" vert-adv-y="2048"  />

      
      <glyph glyph-name="uni4f" unicode="&#x4f;" d="M99 714Q99 1079 295 1285.50Q491 1492 801 1492Q1004 1492 1167 1395Q1330 1298 1415.50 1124.50Q1501 951 1501 731Q1501 508 1411 332Q1321 156 1156 65.50Q991-25 800-25Q593-25 430 75Q267 175 183 348Q99 521 99 714M299 711Q299 446 441.50 293.50Q584 141 799 141Q1018 141 1159.50 295Q1301 449 1301 732Q1301 911 1240.50 1044.50Q1180 1178 1063.50 1251.50Q947 1325 802 1325Q596 1325 447.50 1183.50Q299 1042 299 711Z"  horiz-adv-x="1593" vert-adv-y="2048"  />

      
      <glyph glyph-name="uni50" unicode="&#x50;" d="M158 0L158 1466L711 1466Q857 1466 934 1452Q1042 1434 1115 1383.50Q1188 1333 1232.50 1242Q1277 1151 1277 1042Q1277 855 1158 725.50Q1039 596 728 596L352 596L352 0L158 0M352 769L731 769Q919 769 998 839Q1077 909 1077 1036Q1077 1128 1030.50 1193.50Q984 1259 908 1280Q859 1293 727 1293L352 1293L352 769Z"  horiz-adv-x="1366" vert-adv-y="2048"  />

      
      <glyph glyph-name="uni51" unicode="&#x51;" d="M1269 157Q1404 64 1518 21L1461-114Q1303-57 1146 66Q983-25 786-25Q587-25 425 71Q263 167 175.50 341Q88 515 88 733Q88 950 176 1128Q264 1306 426.50 1399Q589 1492 790 1492Q993 1492 1156 1395.50Q1319 1299 1404.50 1125.50Q1490 952 1490 734Q1490 553 1435 408.50Q1380 264 1269 157M842 405Q1010 358 1119 265Q1290 421 1290 734Q1290 912 1229.50 1045Q1169 1178 1052.50 1251.50Q936 1325 791 1325Q574 1325 431 1176.50Q288 1028 288 733Q288 447 429.50 294Q571 141 791 141Q895 141 987 180Q896 239 795 264L842 405Z"  horiz-adv-x="1593" vert-adv-y="2048"  />

      
      <glyph glyph-name="uni52" unicode="&#x52;" d="M161 0L161 1466L811 1466Q1007 1466 1109 1426.50Q1211 1387 1272 1287Q1333 1187 1333 1066Q1333 910 1232 803Q1131 696 920 667Q997 630 1037 594Q1122 516 1198 399L1453 0L1209 0L1015 305Q930 437 875 507Q820 577 776.50 605Q733 633 688 644Q655 651 580 651L355 651L355 0L161 0M355 819L772 819Q905 819 980 846.50Q1055 874 1094 934.50Q1133 995 1133 1066Q1133 1170 1057.50 1237Q982 1304 819 1304L355 1304L355 819Z"  horiz-adv-x="1479" vert-adv-y="2048"  />

      
      <glyph glyph-name="uni53" unicode="&#x53;" d="M92 471L275 487Q288 377 335.50 306.50Q383 236 483 192.50Q583 149 708 149Q819 149 904 182Q989 215 1030.50 272.50Q1072 330 1072 398Q1072 467 1032 518.50Q992 570 900 605Q841 628 639 676.50Q437 725 356 768Q251 823 199.50 904.50Q148 986 148 1087Q148 1198 211 1294.50Q274 1391 395 1441Q516 1491 664 1491Q827 1491 951.50 1438.50Q1076 1386 1143 1284Q1210 1182 1215 1053L1029 1039Q1014 1178 927.50 1249Q841 1320 672 1320Q496 1320 415.50 1255.50Q335 1191 335 1100Q335 1021 392 970Q448 919 684.50 865.50Q921 812 1009 772Q1137 713 1198 622.50Q1259 532 1259 414Q1259 297 1192 193.50Q1125 90 999.50 32.50Q874-25 717-25Q518-25 383.50 33Q249 91 172.50 207.50Q96 324 92 471Z"  horiz-adv-x="1366" vert-adv-y="2048"  />

      
      <glyph glyph-name="uni54" unicode="&#x54;" d="M531 0L531 1293L48 1293L48 1466L1210 1466L1210 1293L725 1293L725 0L531 0Z"  horiz-adv-x="1251" vert-adv-y="2048"  />

      
      <glyph glyph-name="uni55" unicode="&#x55;" d="M1120 1466L1314 1466L1314 619Q1314 398 1264 268Q1214 138 1083.50 56.50Q953-25 741-25Q535-25 404 46Q273 117 217 251.50Q161 386 161 619L161 1466L355 1466L355 620Q355 429 390.50 338.50Q426 248 512.50 199Q599 150 724 150Q938 150 1029 247Q1120 344 1120 620L1120 1466Z"  horiz-adv-x="1479" vert-adv-y="2048"  />

      
      <glyph glyph-name="uni56" unicode="&#x56;" d="M577 0L9 1466L219 1466L600 401Q646 273 677 161Q711 281 756 401L1152 1466L1350 1466L776 0L577 0Z"  horiz-adv-x="1366" vert-adv-y="2048"  />

      
      <glyph glyph-name="uni57" unicode="&#x57;" d="M414 0L25 1466L224 1466L447 505Q483 354 509 205Q565 440 575 476L854 1466L1088 1466L1298 724Q1377 448 1412 205Q1440 344 1485 524L1715 1466L1910 1466L1508 0L1321 0L1012 1117Q973 1257 966 1289Q943 1188 923 1117L612 0L414 0Z"  horiz-adv-x="1933" vert-adv-y="2048"  />

      
      <glyph glyph-name="uni58" unicode="&#x58;" d="M9 0L576 764L76 1466L307 1466L573 1090Q656 973 691 910Q740 990 807 1077L1102 1466L1313 1466L798 775L1353 0L1113 0L744 523Q713 568 680 621Q631 541 610 511L242 0L9 0Z"  horiz-adv-x="1366" vert-adv-y="2048"  />

      
      <glyph glyph-name="uni59" unicode="&#x59;" d="M571 0L571 621L6 1466L242 1466L531 1024Q611 900 680 776Q746 891 840 1035L1124 1466L1350 1466L765 621L765 0L571 0Z"  horiz-adv-x="1366" vert-adv-y="2048"  />

      
      <glyph glyph-name="uni5a" unicode="&#x5a;" d="M41 0L41 180L792 1119Q872 1219 944 1293L126 1293L126 1466L1176 1466L1176 1293L353 276L264 173L1200 173L1200 0L41 0Z"  horiz-adv-x="1251" vert-adv-y="2048"  />

      
      <glyph glyph-name="uni5b" unicode="&#x5b;" d="M139-407L139 1466L536 1466L536 1317L319 1317L319-258L536-258L536-407L139-407Z"  horiz-adv-x="569" vert-adv-y="2048"  />

      
      <glyph glyph-name="uni5c" unicode="&#x5c;" d="M425-25L0 1491L145 1491L569-25L425-25Z"  horiz-adv-x="569" vert-adv-y="2048"  />

      
      <glyph glyph-name="uni5d" unicode="&#x5d;" d="M436-407L39-407L39-258L256-258L256 1317L39 1317L39 1466L436 1466L436-407Z"  horiz-adv-x="569" vert-adv-y="2048"  />

      
      <glyph glyph-name="uni5e" unicode="&#x5e;" d="M239 690L54 690L407 1491L552 1491L907 690L726 690L479 1287L239 690Z"  horiz-adv-x="961" vert-adv-y="2048"  />

      
      <glyph glyph-name="uni5f" unicode="&#x5f;" d="M-31-407L-31-277L1162-277L1162-407L-31-407Z"  horiz-adv-x="1139" vert-adv-y="2048"  />

      
      <glyph glyph-name="uni60" unicode="&#x60;" d="M465 1194L320 1194L89 1474L330 1474L465 1194Z"  horiz-adv-x="682" vert-adv-y="2048"  />

      
      <glyph glyph-name="uni61" unicode="&#x61;" d="M828 131Q728 46 635.50 11Q543-24 437-24Q262-24 168 61.50Q74 147 74 280Q74 358 109.50 422.50Q145 487 202.50 526Q260 565 332 585Q385 599 492 612Q710 638 813 674Q814 711 814 721Q814 831 763 876Q694 937 558 937Q431 937 370.50 892.50Q310 848 281 735L105 759Q129 872 184 941.50Q239 1011 343 1048.50Q447 1086 584 1086Q720 1086 805 1054Q890 1022 930 973.50Q970 925 986 851Q995 805 995 685L995 445Q995 194 1006.50 127.50Q1018 61 1052 0L864 0Q836 56 828 131M813 533Q715 493 519 465Q408 449 362 429Q316 409 291 370.50Q266 332 266 285Q266 213 320.50 165Q375 117 480 117Q584 117 665 162.50Q746 208 784 287Q813 348 813 467L813 533Z"  horiz-adv-x="1139" vert-adv-y="2048"  />

      
      <glyph glyph-name="uni62" unicode="&#x62;" d="M301 0L134 0L134 1466L314 1466L314 943Q428 1086 605 1086Q703 1086 790.50 1046.50Q878 1007 934.50 935.50Q991 864 1023 763Q1055 662 1055 547Q1055 274 920 125Q785-24 596-24Q408-24 301 133L301 0M299 539Q299 348 351 263Q436 124 581 124Q699 124 785 226.50Q871 329 871 532Q871 740 788.50 839Q706 938 589 938Q471 938 385 835.50Q299 733 299 539Z"  horiz-adv-x="1139" vert-adv-y="2048"  />

      
      <glyph glyph-name="uni63" unicode="&#x63;" d="M828 389L1005 366Q976 183 856.50 79.50Q737-24 563-24Q345-24 212.50 118.50Q80 261 80 527Q80 699 137 828Q194 957 310.50 1021.50Q427 1086 564 1086Q737 1086 847 998.50Q957 911 988 750L813 723Q788 830 724.50 884Q661 938 571 938Q435 938 350 840.50Q265 743 265 532Q265 318 347 221Q429 124 561 124Q667 124 738 189Q809 254 828 389Z"  horiz-adv-x="1024" vert-adv-y="2048"  />

      
      <glyph glyph-name="uni64" unicode="&#x64;" d="M824 0L824 134Q723-24 527-24Q400-24 293.50 46Q187 116 128.50 241.50Q70 367 70 530Q70 689 123 818.50Q176 948 282 1017Q388 1086 519 1086Q615 1086 690 1045.50Q765 1005 812 940L812 1466L991 1466L991 0L824 0M255 530Q255 326 341 225Q427 124 544 124Q662 124 744.50 220.50Q827 317 827 515Q827 733 743 835Q659 937 536 937Q416 937 335.50 839Q255 741 255 530Z"  horiz-adv-x="1139" vert-adv-y="2048"  />

      
      <glyph glyph-name="uni65" unicode="&#x65;" d="M862 342L1048 319Q1004 156 885 66Q766-24 581-24Q348-24 211.50 119.50Q75 263 75 522Q75 790 213 938Q351 1086 571 1086Q784 1086 919 941Q1054 796 1054 533Q1054 517 1053 485L261 485Q271 310 360 217Q449 124 582 124Q681 124 751 176Q821 228 862 342M271 633L864 633Q852 767 796 834Q710 938 573 938Q449 938 364.50 855Q280 772 271 633Z"  horiz-adv-x="1139" vert-adv-y="2048"  />

      
      <glyph glyph-name="uni66" unicode="&#x66;" d="M178 0L178 922L19 922L19 1062L178 1062L178 1175Q178 1282 197 1334Q223 1404 288.50 1447.50Q354 1491 472 1491Q548 1491 640 1473L613 1316Q557 1326 507 1326Q425 1326 391 1291Q357 1256 357 1160L357 1062L564 1062L564 922L357 922L357 0L178 0Z"  horiz-adv-x="569" vert-adv-y="2048"  />

      
      <glyph glyph-name="uni67" unicode="&#x67;" d="M102-88L277-114Q288-195 338-232Q405-282 521-282Q646-282 714-232Q782-182 806-92Q820-37 819 139Q701 0 525 0Q306 0 186 158Q66 316 66 537Q66 689 121 817.50Q176 946 280.50 1016Q385 1086 526 1086Q714 1086 836 934L836 1062L1002 1062L1002 144Q1002-104 951.50-207.50Q901-311 791.50-371Q682-431 522-431Q332-431 215-345.50Q98-260 102-88M251 550Q251 341 334 245Q417 149 542 149Q666 149 750 244.50Q834 340 834 544Q834 739 747.50 838Q661 937 539 937Q419 937 335 839.50Q251 742 251 550Z"  horiz-adv-x="1139" vert-adv-y="2048"  />

      
      <glyph glyph-name="uni68" unicode="&#x68;" d="M135 0L135 1466L315 1466L315 940Q441 1086 633 1086Q751 1086 838 1039.50Q925 993 962.50 911Q1000 829 1000 673L1000 0L820 0L820 673Q820 808 761.50 869.50Q703 931 596 931Q516 931 445.50 889.50Q375 848 345 777Q315 706 315 581L315 0L135 0Z"  horiz-adv-x="1139" vert-adv-y="2048"  />

      
      <glyph glyph-name="uni69" unicode="&#x69;" d="M136 1259L136 1466L316 1466L316 1259L136 1259M136 0L136 1062L316 1062L316 0L136 0Z"  horiz-adv-x="455" vert-adv-y="2048"  />

      
      <glyph glyph-name="uni6a" unicode="&#x6a;" d="M134 1257L134 1466L314 1466L314 1257L134 1257M-94-412L-60-259Q-6-273 25-273Q80-273 107-236.50Q134-200 134-54L134 1062L314 1062L314-58Q314-254 263-331Q198-431 47-431Q-26-431-94-412Z"  horiz-adv-x="455" vert-adv-y="2048"  />

      
      <glyph glyph-name="uni6b" unicode="&#x6b;" d="M136 0L136 1466L316 1466L316 630L742 1062L975 1062L569 668L1016 0L794 0L443 543L316 421L316 0L136 0Z"  horiz-adv-x="1024" vert-adv-y="2048"  />

      
      <glyph glyph-name="uni6c" unicode="&#x6c;" d="M131 0L131 1466L311 1466L311 0L131 0Z"  horiz-adv-x="455" vert-adv-y="2048"  />

      
      <glyph glyph-name="uni6d" unicode="&#x6d;" d="M135 0L135 1062L296 1062L296 913Q346 991 429 1038.50Q512 1086 618 1086Q736 1086 811.50 1037Q887 988 918 900Q1044 1086 1246 1086Q1404 1086 1489 998.50Q1574 911 1574 729L1574 0L1395 0L1395 669Q1395 777 1377.50 824.50Q1360 872 1314 901Q1268 930 1206 930Q1094 930 1020 855.50Q946 781 946 617L946 0L766 0L766 690Q766 810 722 870Q678 930 578 930Q502 930 437.50 890Q373 850 344 773Q315 696 315 551L315 0L135 0Z"  horiz-adv-x="1706" vert-adv-y="2048"  />

      
      <glyph glyph-name="uni6e" unicode="&#x6e;" d="M135 0L135 1062L297 1062L297 911Q414 1086 635 1086Q731 1086 811.50 1051.50Q892 1017 932 961Q972 905 988 828Q998 778 998 653L998 0L818 0L818 646Q818 756 797 810.50Q776 865 722.50 897.50Q669 930 597 930Q482 930 398.50 857Q315 784 315 580L315 0L135 0Z"  horiz-adv-x="1139" vert-adv-y="2048"  />

      
      <glyph glyph-name="uni6f" unicode="&#x6f;" d="M68 531Q68 826 232 968Q369 1086 566 1086Q785 1086 924 942.50Q1063 799 1063 546Q1063 341 1001.50 223.50Q940 106 822.50 41Q705-24 566-24Q343-24 205.50 119Q68 262 68 531M253 531Q253 327 342 225.50Q431 124 566 124Q700 124 789 226Q878 328 878 537Q878 734 788.50 835.50Q699 937 566 937Q431 937 342 836Q253 735 253 531Z"  horiz-adv-x="1139" vert-adv-y="2048"  />

      
      <glyph glyph-name="uni70" unicode="&#x70;" d="M135-407L135 1062L299 1062L299 924Q357 1005 430 1045.50Q503 1086 607 1086Q743 1086 847 1016Q951 946 1004 818.50Q1057 691 1057 539Q1057 376 998.50 245.50Q940 115 828.50 45.50Q717-24 594-24Q504-24 432.50 14Q361 52 315 110L315-407L135-407M298 525Q298 320 381 222Q464 124 582 124Q702 124 787.50 225.50Q873 327 873 540Q873 743 789.50 844Q706 945 590 945Q475 945 386.50 837.50Q298 730 298 525Z"  horiz-adv-x="1139" vert-adv-y="2048"  />

      
      <glyph glyph-name="uni71" unicode="&#x71;" d="M812-407L812 113Q770 54 694.50 15Q619-24 534-24Q345-24 208.50 127Q72 278 72 541Q72 701 127.50 828Q183 955 288.50 1020.50Q394 1086 520 1086Q717 1086 830 920L830 1062L992 1062L992-407L812-407M257 534Q257 329 343 226.50Q429 124 549 124Q664 124 747 221.50Q830 319 830 518Q830 730 742.50 837Q655 944 537 944Q420 944 338.50 844.50Q257 745 257 534Z"  horiz-adv-x="1139" vert-adv-y="2048"  />

      
      <glyph glyph-name="uni72" unicode="&#x72;" d="M133 0L133 1062L295 1062L295 901Q357 1014 409.50 1050Q462 1086 525 1086Q616 1086 710 1028L648 861Q582 900 516 900Q457 900 410 864.50Q363 829 343 766Q313 670 313 556L313 0L133 0Z"  horiz-adv-x="682" vert-adv-y="2048"  />

      
      <glyph glyph-name="uni73" unicode="&#x73;" d="M63 317L241 345Q256 238 324.50 181Q393 124 516 124Q640 124 700 174.50Q760 225 760 293Q760 354 707 389Q670 413 523 450Q325 500 248.50 536.50Q172 573 132.50 637.50Q93 702 93 780Q93 851 125.50 911.50Q158 972 214 1012Q256 1043 328.50 1064.50Q401 1086 484 1086Q609 1086 703.50 1050Q798 1014 843 952.50Q888 891 905 788L729 764Q717 846 659.50 892Q602 938 497 938Q373 938 320 897Q267 856 267 801Q267 766 289 738Q311 709 358 690Q385 680 517 644Q708 593 783.50 560.50Q859 528 902 466Q945 404 945 312Q945 222 892.50 142.50Q840 63 741 19.50Q642-24 517-24Q310-24 201.50 62Q93 148 63 317Z"  horiz-adv-x="1024" vert-adv-y="2048"  />

      
      <glyph glyph-name="uni74" unicode="&#x74;" d="M528 161L554 2Q478-14 418-14Q320-14 266 17Q212 48 190 98.50Q168 149 168 311L168 922L36 922L36 1062L168 1062L168 1325L347 1433L347 1062L528 1062L528 922L347 922L347 301Q347 224 356.50 202Q366 180 387.50 167Q409 154 449 154Q479 154 528 161Z"  horiz-adv-x="569" vert-adv-y="2048"  />

      
      <glyph glyph-name="uni75" unicode="&#x75;" d="M831 0L831 156Q707-24 494-24Q400-24 318.50 12Q237 48 197.50 102.50Q158 157 142 236Q131 289 131 404L131 1062L311 1062L311 473Q311 332 322 283Q339 212 394 171.50Q449 131 530 131Q611 131 682 172.50Q753 214 782.50 285.50Q812 357 812 493L812 1062L992 1062L992 0L831 0Z"  horiz-adv-x="1139" vert-adv-y="2048"  />

      
      <glyph glyph-name="uni76" unicode="&#x76;" d="M430 0L26 1062L216 1062L444 426Q481 323 512 212Q536 296 579 414L815 1062L1000 1062L598 0L430 0Z"  horiz-adv-x="1024" vert-adv-y="2048"  />

      
      <glyph glyph-name="uni77" unicode="&#x77;" d="M331 0L6 1062L192 1062L361 449L424 221Q428 238 479 440L648 1062L833 1062L992 446L1045 243L1106 448L1288 1062L1463 1062L1131 0L944 0L775 636L734 817L519 0L331 0Z"  horiz-adv-x="1479" vert-adv-y="2048"  />

      
      <glyph glyph-name="uni78" unicode="&#x78;" d="M15 0L403 552L44 1062L269 1062L432 813Q478 742 506 694Q550 760 587 811L766 1062L981 1062L614 562L1009 0L788 0L570 330L512 419L233 0L15 0Z"  horiz-adv-x="1024" vert-adv-y="2048"  />

      
      <glyph glyph-name="uni79" unicode="&#x79;" d="M127-409L107-240Q166-256 210-256Q270-256 306-236Q342-216 365-180Q382-153 420-46Q425-31 436-2L33 1062L227 1062L448 447Q491 330 525 201Q556 325 599 443L826 1062L1006 1062L602-18Q537-193 501-259Q453-348 391-389.50Q329-431 243-431Q191-431 127-409Z"  horiz-adv-x="1024" vert-adv-y="2048"  />

      
      <glyph glyph-name="uni7a" unicode="&#x7a;" d="M40 0L40 146L716 922Q601 916 513 916L80 916L80 1062L948 1062L948 943L373 269L262 146Q383 155 489 155L980 155L980 0L40 0Z"  horiz-adv-x="1024" vert-adv-y="2048"  />

      
      <glyph glyph-name="uni7b" unicode="&#x7b;" d="M57 612Q134 614 182.50 653.50Q231 693 247 762Q263 831 264 998Q265 1165 270 1218Q279 1302 303.50 1353Q328 1404 364 1434.50Q400 1465 456 1481Q494 1491 580 1491L636 1491L636 1334L605 1334Q501 1334 467 1296.50Q433 1259 433 1129Q433 867 422 798Q404 691 360.50 633Q317 575 224 530Q334 484 383.50 389.50Q433 295 433 80Q433-115 437-152Q445-220 477.50-247Q510-274 605-274L636-274L636-431L580-431Q482-431 438-415Q374-392 332-340.50Q290-289 277.50-210Q265-131 264 49Q263 229 247 298Q231 367 182.50 407Q134 447 57 449L57 612Z"  horiz-adv-x="684" vert-adv-y="2048"  />

      
      <glyph glyph-name="uni7c" unicode="&#x7c;" d="M188-431L188 1491L345 1491L345-431L188-431Z"  horiz-adv-x="532" vert-adv-y="2048"  />

      
      <glyph glyph-name="uni7d" unicode="&#x7d;" d="M626 612L626 449Q549 447 500.50 407Q452 367 436 298.50Q420 230 419 63Q418-104 413-157Q404-242 379.50-292.50Q355-343 319-373.50Q283-404 227-420Q189-431 103-431L47-431L47-274L78-274Q182-274 216-236.50Q250-199 250-68Q250 182 259 249Q275 360 323 426.50Q371 493 459 530Q344 585 297 675.50Q250 766 250 981Q250 1176 245 1214Q238 1281 205.50 1307.50Q173 1334 78 1334L47 1334L47 1491L103 1491Q201 1491 245 1475Q309 1453 351 1401Q393 1349 405.50 1270Q418 1191 419 1011Q420 831 436 762.50Q452 694 500.50 654Q549 614 626 612Z"  horiz-adv-x="684" vert-adv-y="2048"  />

      
      <glyph glyph-name="uni7e" unicode="&#x7e;" d="M87 557L87 762Q193 882 365 882Q425 882 491 864.50Q557 847 679 795Q748 766 782.50 757Q817 748 852 748Q917 748 986.50 787Q1056 826 1110 885L1110 673Q1046 613 980.50 586Q915 559 833 559Q773 559 718.50 573Q664 587 545.50 640Q427 693 348 693Q284 693 227.50 665.50Q171 638 87 557Z"  horiz-adv-x="1196" vert-adv-y="2048"  />

      
      <glyph glyph-name="unic4" unicode="&#xc4;" d="M-3 0L560 1466L769 1466L1369 0L1148 0L977 444L364 444L203 0L-3 0M420 602L917 602L764 1008Q694 1193 660 1312Q632 1171 581 1032L420 602M379 1556L379 1761L567 1761L567 1556L379 1556M752 1556L752 1761L940 1761L940 1556L752 1556Z"  horiz-adv-x="1366" vert-adv-y="2048"  />

      
      <glyph glyph-name="unic5" unicode="&#xc5;" d="M-3 0L560 1466L769 1466L1369 0L1148 0L977 444L364 444L203 0L-3 0M420 602L917 602L764 1008Q694 1193 660 1312Q632 1171 581 1032L420 602M481 1601Q481 1674 534.50 1727Q588 1780 661 1780Q735 1780 788 1726.50Q841 1673 841 1597Q841 1520 788 1467Q735 1414 662 1414Q587 1414 534 1467.50Q481 1521 481 1601M557 1600Q557 1553 588.50 1521Q620 1489 663 1489Q706 1489 737.50 1521Q769 1553 769 1598Q769 1643 738 1675Q707 1707 663 1707Q620 1707 588.50 1675.50Q557 1644 557 1600Z"  horiz-adv-x="1366" vert-adv-y="2048"  />

      
      <glyph glyph-name="unic7" unicode="&#xc7;" d="M1204 514L1398 465Q1337 226 1178.50 100.50Q1020-25 791-25Q554-25 405.50 71.50Q257 168 179.50 351Q102 534 102 744Q102 973 189.50 1143.50Q277 1314 438.50 1402.50Q600 1491 794 1491Q1014 1491 1164 1379Q1314 1267 1373 1064L1182 1019Q1131 1179 1034 1252Q937 1325 790 1325Q621 1325 507.50 1244Q394 1163 348 1026.50Q302 890 302 745Q302 558 356.50 418.50Q411 279 526 210Q641 141 775 141Q938 141 1051 235Q1164 329 1204 514M620-154L672 23L806 23L773-84Q858-94 901-136.50Q944-179 944-231Q944-306 872-363.50Q800-421 655-421Q573-421 511-409L522-292Q586-296 616-296Q710-296 748-270Q777-250 777-221Q777-203 765.50-189Q754-175 723-165Q692-155 620-154Z"  horiz-adv-x="1479" vert-adv-y="2048"  />

      
      <glyph glyph-name="unic9" unicode="&#xc9;" d="M162 0L162 1466L1222 1466L1222 1293L356 1293L356 844L1167 844L1167 672L356 672L356 173L1256 173L1256 0L162 0M562 1556L695 1836L931 1836L711 1556L562 1556Z"  horiz-adv-x="1366" vert-adv-y="2048"  />

      
      <glyph glyph-name="unid1" unicode="&#xd1;" d="M156 0L156 1466L355 1466L1125 315L1125 1466L1311 1466L1311 0L1112 0L342 1152L342 0L156 0M430 1556Q429 1660 487 1722Q544 1784 633 1784Q695 1784 802 1730Q861 1700 896 1700Q928 1700 945 1717.50Q962 1735 969 1787L1099 1787Q1096 1673 1041.50 1616Q987 1559 903 1559Q840 1559 737 1615Q670 1651 639 1651Q605 1651 584 1627Q562 1603 563 1556L430 1556Z"  horiz-adv-x="1479" vert-adv-y="2048"  />

      
      <glyph glyph-name="unid6" unicode="&#xd6;" d="M99 714Q99 1079 295 1285.50Q491 1492 801 1492Q1004 1492 1167 1395Q1330 1298 1415.50 1124.50Q1501 951 1501 731Q1501 508 1411 332Q1321 156 1156 65.50Q991-25 800-25Q593-25 430 75Q267 175 183 348Q99 521 99 714M299 711Q299 446 441.50 293.50Q584 141 799 141Q1018 141 1159.50 295Q1301 449 1301 732Q1301 911 1240.50 1044.50Q1180 1178 1063.50 1251.50Q947 1325 802 1325Q596 1325 447.50 1183.50Q299 1042 299 711M516 1556L516 1761L704 1761L704 1556L516 1556M889 1556L889 1761L1077 1761L1077 1556L889 1556Z"  horiz-adv-x="1593" vert-adv-y="2048"  />

      
      <glyph glyph-name="unidc" unicode="&#xdc;" d="M1120 1466L1314 1466L1314 619Q1314 398 1264 268Q1214 138 1083.50 56.50Q953-25 741-25Q535-25 404 46Q273 117 217 251.50Q161 386 161 619L161 1466L355 1466L355 620Q355 429 390.50 338.50Q426 248 512.50 199Q599 150 724 150Q938 150 1029 247Q1120 344 1120 620L1120 1466M454 1556L454 1761L642 1761L642 1556L454 1556M827 1556L827 1761L1015 1761L1015 1556L827 1556Z"  horiz-adv-x="1479" vert-adv-y="2048"  />

      
      <glyph glyph-name="unie1" unicode="&#xe1;" d="M828 131Q728 46 635.50 11Q543-24 437-24Q262-24 168 61.50Q74 147 74 280Q74 358 109.50 422.50Q145 487 202.50 526Q260 565 332 585Q385 599 492 612Q710 638 813 674Q814 711 814 721Q814 831 763 876Q694 937 558 937Q431 937 370.50 892.50Q310 848 281 735L105 759Q129 872 184 941.50Q239 1011 343 1048.50Q447 1086 584 1086Q720 1086 805 1054Q890 1022 930 973.50Q970 925 986 851Q995 805 995 685L995 445Q995 194 1006.50 127.50Q1018 61 1052 0L864 0Q836 56 828 131M813 533Q715 493 519 465Q408 449 362 429Q316 409 291 370.50Q266 332 266 285Q266 213 320.50 165Q375 117 480 117Q584 117 665 162.50Q746 208 784 287Q813 348 813 467L813 533M463 1194L596 1474L832 1474L612 1194L463 1194Z"  horiz-adv-x="1139" vert-adv-y="2048"  />

      
      <glyph glyph-name="unie0" unicode="&#xe0;" d="M828 131Q728 46 635.50 11Q543-24 437-24Q262-24 168 61.50Q74 147 74 280Q74 358 109.50 422.50Q145 487 202.50 526Q260 565 332 585Q385 599 492 612Q710 638 813 674Q814 711 814 721Q814 831 763 876Q694 937 558 937Q431 937 370.50 892.50Q310 848 281 735L105 759Q129 872 184 941.50Q239 1011 343 1048.50Q447 1086 584 1086Q720 1086 805 1054Q890 1022 930 973.50Q970 925 986 851Q995 805 995 685L995 445Q995 194 1006.50 127.50Q1018 61 1052 0L864 0Q836 56 828 131M813 533Q715 493 519 465Q408 449 362 429Q316 409 291 370.50Q266 332 266 285Q266 213 320.50 165Q375 117 480 117Q584 117 665 162.50Q746 208 784 287Q813 348 813 467L813 533M715 1194L570 1194L339 1474L580 1474L715 1194Z"  horiz-adv-x="1139" vert-adv-y="2048"  />

      
      <glyph glyph-name="unie2" unicode="&#xe2;" d="M828 131Q728 46 635.50 11Q543-24 437-24Q262-24 168 61.50Q74 147 74 280Q74 358 109.50 422.50Q145 487 202.50 526Q260 565 332 585Q385 599 492 612Q710 638 813 674Q814 711 814 721Q814 831 763 876Q694 937 558 937Q431 937 370.50 892.50Q310 848 281 735L105 759Q129 872 184 941.50Q239 1011 343 1048.50Q447 1086 584 1086Q720 1086 805 1054Q890 1022 930 973.50Q970 925 986 851Q995 805 995 685L995 445Q995 194 1006.50 127.50Q1018 61 1052 0L864 0Q836 56 828 131M813 533Q715 493 519 465Q408 449 362 429Q316 409 291 370.50Q266 332 266 285Q266 213 320.50 165Q375 117 480 117Q584 117 665 162.50Q746 208 784 287Q813 348 813 467L813 533M566 1364L453 1194L247 1194L463 1474L655 1474L880 1194L676 1194L566 1364Z"  horiz-adv-x="1139" vert-adv-y="2048"  />

      
      <glyph glyph-name="unie4" unicode="&#xe4;" d="M828 131Q728 46 635.50 11Q543-24 437-24Q262-24 168 61.50Q74 147 74 280Q74 358 109.50 422.50Q145 487 202.50 526Q260 565 332 585Q385 599 492 612Q710 638 813 674Q814 711 814 721Q814 831 763 876Q694 937 558 937Q431 937 370.50 892.50Q310 848 281 735L105 759Q129 872 184 941.50Q239 1011 343 1048.50Q447 1086 584 1086Q720 1086 805 1054Q890 1022 930 973.50Q970 925 986 851Q995 805 995 685L995 445Q995 194 1006.50 127.50Q1018 61 1052 0L864 0Q836 56 828 131M813 533Q715 493 519 465Q408 449 362 429Q316 409 291 370.50Q266 332 266 285Q266 213 320.50 165Q375 117 480 117Q584 117 665 162.50Q746 208 784 287Q813 348 813 467L813 533M283 1270L283 1475L471 1475L471 1270L283 1270M656 1270L656 1475L844 1475L844 1270L656 1270Z"  horiz-adv-x="1139" vert-adv-y="2048"  />

      
      <glyph glyph-name="unie3" unicode="&#xe3;" d="M828 131Q728 46 635.50 11Q543-24 437-24Q262-24 168 61.50Q74 147 74 280Q74 358 109.50 422.50Q145 487 202.50 526Q260 565 332 585Q385 599 492 612Q710 638 813 674Q814 711 814 721Q814 831 763 876Q694 937 558 937Q431 937 370.50 892.50Q310 848 281 735L105 759Q129 872 184 941.50Q239 1011 343 1048.50Q447 1086 584 1086Q720 1086 805 1054Q890 1022 930 973.50Q970 925 986 851Q995 805 995 685L995 445Q995 194 1006.50 127.50Q1018 61 1052 0L864 0Q836 56 828 131M813 533Q715 493 519 465Q408 449 362 429Q316 409 291 370.50Q266 332 266 285Q266 213 320.50 165Q375 117 480 117Q584 117 665 162.50Q746 208 784 287Q813 348 813 467L813 533M229 1219Q228 1323 286 1385Q343 1447 432 1447Q494 1447 601 1393Q660 1363 695 1363Q727 1363 744 1380.50Q761 1398 768 1450L898 1450Q895 1336 840.50 1279Q786 1222 702 1222Q639 1222 536 1278Q469 1314 438 1314Q404 1314 383 1290Q361 1266 362 1219L229 1219Z"  horiz-adv-x="1139" vert-adv-y="2048"  />

      
      <glyph glyph-name="unie5" unicode="&#xe5;" d="M828 131Q728 46 635.50 11Q543-24 437-24Q262-24 168 61.50Q74 147 74 280Q74 358 109.50 422.50Q145 487 202.50 526Q260 565 332 585Q385 599 492 612Q710 638 813 674Q814 711 814 721Q814 831 763 876Q694 937 558 937Q431 937 370.50 892.50Q310 848 281 735L105 759Q129 872 184 941.50Q239 1011 343 1048.50Q447 1086 584 1086Q720 1086 805 1054Q890 1022 930 973.50Q970 925 986 851Q995 805 995 685L995 445Q995 194 1006.50 127.50Q1018 61 1052 0L864 0Q836 56 828 131M813 533Q715 493 519 465Q408 449 362 429Q316 409 291 370.50Q266 332 266 285Q266 213 320.50 165Q375 117 480 117Q584 117 665 162.50Q746 208 784 287Q813 348 813 467L813 533M383 1338Q383 1411 436.50 1464Q490 1517 563 1517Q637 1517 690 1463.50Q743 1410 743 1334Q743 1257 690 1204Q637 1151 564 1151Q489 1151 436 1204.50Q383 1258 383 1338M459 1337Q459 1290 490.50 1258Q522 1226 565 1226Q608 1226 639.50 1258Q671 1290 671 1335Q671 1380 640 1412Q609 1444 565 1444Q522 1444 490.50 1412.50Q459 1381 459 1337Z"  horiz-adv-x="1139" vert-adv-y="2048"  />

      
      <glyph glyph-name="unie7" unicode="&#xe7;" d="M828 389L1005 366Q976 183 856.50 79.50Q737-24 563-24Q345-24 212.50 118.50Q80 261 80 527Q80 699 137 828Q194 957 310.50 1021.50Q427 1086 564 1086Q737 1086 847 998.50Q957 911 988 750L813 723Q788 830 724.50 884Q661 938 571 938Q435 938 350 840.50Q265 743 265 532Q265 318 347 221Q429 124 561 124Q667 124 738 189Q809 254 828 389M411-134L463 43L597 43L564-64Q649-74 692-116.50Q735-159 735-211Q735-286 663-343.50Q591-401 446-401Q364-401 302-389L313-272Q377-276 407-276Q501-276 539-250Q568-230 568-201Q568-183 556.50-169Q545-155 514-145Q483-135 411-134Z"  horiz-adv-x="1024" vert-adv-y="2048"  />

      
      <glyph glyph-name="unie9" unicode="&#xe9;" d="M862 342L1048 319Q1004 156 885 66Q766-24 581-24Q348-24 211.50 119.50Q75 263 75 522Q75 790 213 938Q351 1086 571 1086Q784 1086 919 941Q1054 796 1054 533Q1054 517 1053 485L261 485Q271 310 360 217Q449 124 582 124Q681 124 751 176Q821 228 862 342M271 633L864 633Q852 767 796 834Q710 938 573 938Q449 938 364.50 855Q280 772 271 633M465 1194L598 1474L834 1474L614 1194L465 1194Z"  horiz-adv-x="1139" vert-adv-y="2048"  />

      
      <glyph glyph-name="unie8" unicode="&#xe8;" d="M862 342L1048 319Q1004 156 885 66Q766-24 581-24Q348-24 211.50 119.50Q75 263 75 522Q75 790 213 938Q351 1086 571 1086Q784 1086 919 941Q1054 796 1054 533Q1054 517 1053 485L261 485Q271 310 360 217Q449 124 582 124Q681 124 751 176Q821 228 862 342M271 633L864 633Q852 767 796 834Q710 938 573 938Q449 938 364.50 855Q280 772 271 633M686 1194L541 1194L310 1474L551 1474L686 1194Z"  horiz-adv-x="1139" vert-adv-y="2048"  />

      
      <glyph glyph-name="uniea" unicode="&#xea;" d="M862 342L1048 319Q1004 156 885 66Q766-24 581-24Q348-24 211.50 119.50Q75 263 75 522Q75 790 213 938Q351 1086 571 1086Q784 1086 919 941Q1054 796 1054 533Q1054 517 1053 485L261 485Q271 310 360 217Q449 124 582 124Q681 124 751 176Q821 228 862 342M271 633L864 633Q852 767 796 834Q710 938 573 938Q449 938 364.50 855Q280 772 271 633M567 1364L454 1194L248 1194L464 1474L656 1474L881 1194L677 1194L567 1364Z"  horiz-adv-x="1139" vert-adv-y="2048"  />

      
      <glyph glyph-name="unieb" unicode="&#xeb;" d="M862 342L1048 319Q1004 156 885 66Q766-24 581-24Q348-24 211.50 119.50Q75 263 75 522Q75 790 213 938Q351 1086 571 1086Q784 1086 919 941Q1054 796 1054 533Q1054 517 1053 485L261 485Q271 310 360 217Q449 124 582 124Q681 124 751 176Q821 228 862 342M271 633L864 633Q852 767 796 834Q710 938 573 938Q449 938 364.50 855Q280 772 271 633M284 1270L284 1475L472 1475L472 1270L284 1270M657 1270L657 1475L845 1475L845 1270L657 1270Z"  horiz-adv-x="1139" vert-adv-y="2048"  />

      
      <glyph glyph-name="unied" unicode="&#xed;" d="M198 0L198 1062L378 1062L378 0L198 0M189 1194L322 1474L558 1474L338 1194L189 1194Z"  horiz-adv-x="569" vert-adv-y="2048"  />

      
      <glyph glyph-name="uniec" unicode="&#xec;" d="M198 0L198 1062L378 1062L378 0L198 0M411 1194L266 1194L35 1474L276 1474L411 1194Z"  horiz-adv-x="569" vert-adv-y="2048"  />

      
      <glyph glyph-name="uniee" unicode="&#xee;" d="M198 0L198 1062L378 1062L378 0L198 0M302 1364L189 1194L-17 1194L199 1474L391 1474L616 1194L412 1194L302 1364Z"  horiz-adv-x="569" vert-adv-y="2048"  />

      
      <glyph glyph-name="unief" unicode="&#xef;" d="M198 0L198 1062L378 1062L378 0L198 0M9 1270L9 1475L197 1475L197 1270L9 1270M382 1270L382 1475L570 1475L570 1270L382 1270Z"  horiz-adv-x="569" vert-adv-y="2048"  />

      
      <glyph glyph-name="unif1" unicode="&#xf1;" d="M135 0L135 1062L297 1062L297 911Q414 1086 635 1086Q731 1086 811.50 1051.50Q892 1017 932 961Q972 905 988 828Q998 778 998 653L998 0L818 0L818 646Q818 756 797 810.50Q776 865 722.50 897.50Q669 930 597 930Q482 930 398.50 857Q315 784 315 580L315 0L135 0M262 1219Q261 1323 319 1385Q376 1447 465 1447Q527 1447 634 1393Q693 1363 728 1363Q760 1363 777 1380.50Q794 1398 801 1450L931 1450Q928 1336 873.50 1279Q819 1222 735 1222Q672 1222 569 1278Q502 1314 471 1314Q437 1314 416 1290Q394 1266 395 1219L262 1219Z"  horiz-adv-x="1139" vert-adv-y="2048"  />

      
      <glyph glyph-name="unif3" unicode="&#xf3;" d="M68 531Q68 826 232 968Q369 1086 566 1086Q785 1086 924 942.50Q1063 799 1063 546Q1063 341 1001.50 223.50Q940 106 822.50 41Q705-24 566-24Q343-24 205.50 119Q68 262 68 531M253 531Q253 327 342 225.50Q431 124 566 124Q700 124 789 226Q878 328 878 537Q878 734 788.50 835.50Q699 937 566 937Q431 937 342 836Q253 735 253 531M466 1194L599 1474L835 1474L615 1194L466 1194Z"  horiz-adv-x="1139" vert-adv-y="2048"  />

      
      <glyph glyph-name="unif2" unicode="&#xf2;" d="M68 531Q68 826 232 968Q369 1086 566 1086Q785 1086 924 942.50Q1063 799 1063 546Q1063 341 1001.50 223.50Q940 106 822.50 41Q705-24 566-24Q343-24 205.50 119Q68 262 68 531M253 531Q253 327 342 225.50Q431 124 566 124Q700 124 789 226Q878 328 878 537Q878 734 788.50 835.50Q699 937 566 937Q431 937 342 836Q253 735 253 531M687 1194L542 1194L311 1474L552 1474L687 1194Z"  horiz-adv-x="1139" vert-adv-y="2048"  />

      
      <glyph glyph-name="unif4" unicode="&#xf4;" d="M68 531Q68 826 232 968Q369 1086 566 1086Q785 1086 924 942.50Q1063 799 1063 546Q1063 341 1001.50 223.50Q940 106 822.50 41Q705-24 566-24Q343-24 205.50 119Q68 262 68 531M253 531Q253 327 342 225.50Q431 124 566 124Q700 124 789 226Q878 328 878 537Q878 734 788.50 835.50Q699 937 566 937Q431 937 342 836Q253 735 253 531M568 1364L455 1194L249 1194L465 1474L657 1474L882 1194L678 1194L568 1364Z"  horiz-adv-x="1139" vert-adv-y="2048"  />

      
      <glyph glyph-name="unif6" unicode="&#xf6;" d="M68 531Q68 826 232 968Q369 1086 566 1086Q785 1086 924 942.50Q1063 799 1063 546Q1063 341 1001.50 223.50Q940 106 822.50 41Q705-24 566-24Q343-24 205.50 119Q68 262 68 531M253 531Q253 327 342 225.50Q431 124 566 124Q700 124 789 226Q878 328 878 537Q878 734 788.50 835.50Q699 937 566 937Q431 937 342 836Q253 735 253 531M285 1270L285 1475L473 1475L473 1270L285 1270M658 1270L658 1475L846 1475L846 1270L658 1270Z"  horiz-adv-x="1139" vert-adv-y="2048"  />

      
      <glyph glyph-name="unif5" unicode="&#xf5;" d="M68 531Q68 826 232 968Q369 1086 566 1086Q785 1086 924 942.50Q1063 799 1063 546Q1063 341 1001.50 223.50Q940 106 822.50 41Q705-24 566-24Q343-24 205.50 119Q68 262 68 531M253 531Q253 327 342 225.50Q431 124 566 124Q700 124 789 226Q878 328 878 537Q878 734 788.50 835.50Q699 937 566 937Q431 937 342 836Q253 735 253 531M231 1219Q230 1323 288 1385Q345 1447 434 1447Q496 1447 603 1393Q662 1363 697 1363Q729 1363 746 1380.50Q763 1398 770 1450L900 1450Q897 1336 842.50 1279Q788 1222 704 1222Q641 1222 538 1278Q471 1314 440 1314Q406 1314 385 1290Q363 1266 364 1219L231 1219Z"  horiz-adv-x="1139" vert-adv-y="2048"  />

      
      <glyph glyph-name="unifa" unicode="&#xfa;" d="M831 0L831 156Q707-24 494-24Q400-24 318.50 12Q237 48 197.50 102.50Q158 157 142 236Q131 289 131 404L131 1062L311 1062L311 473Q311 332 322 283Q339 212 394 171.50Q449 131 530 131Q611 131 682 172.50Q753 214 782.50 285.50Q812 357 812 493L812 1062L992 1062L992 0L831 0M453 1194L586 1474L822 1474L602 1194L453 1194Z"  horiz-adv-x="1139" vert-adv-y="2048"  />

      
      <glyph glyph-name="unif9" unicode="&#xf9;" d="M831 0L831 156Q707-24 494-24Q400-24 318.50 12Q237 48 197.50 102.50Q158 157 142 236Q131 289 131 404L131 1062L311 1062L311 473Q311 332 322 283Q339 212 394 171.50Q449 131 530 131Q611 131 682 172.50Q753 214 782.50 285.50Q812 357 812 493L812 1062L992 1062L992 0L831 0M728 1194L583 1194L352 1474L593 1474L728 1194Z"  horiz-adv-x="1139" vert-adv-y="2048"  />

      
      <glyph glyph-name="unifb" unicode="&#xfb;" d="M831 0L831 156Q707-24 494-24Q400-24 318.50 12Q237 48 197.50 102.50Q158 157 142 236Q131 289 131 404L131 1062L311 1062L311 473Q311 332 322 283Q339 212 394 171.50Q449 131 530 131Q611 131 682 172.50Q753 214 782.50 285.50Q812 357 812 493L812 1062L992 1062L992 0L831 0M564 1364L451 1194L245 1194L461 1474L653 1474L878 1194L674 1194L564 1364Z"  horiz-adv-x="1139" vert-adv-y="2048"  />

      
      <glyph glyph-name="unifc" unicode="&#xfc;" d="M831 0L831 156Q707-24 494-24Q400-24 318.50 12Q237 48 197.50 102.50Q158 157 142 236Q131 289 131 404L131 1062L311 1062L311 473Q311 332 322 283Q339 212 394 171.50Q449 131 530 131Q611 131 682 172.50Q753 214 782.50 285.50Q812 357 812 493L812 1062L992 1062L992 0L831 0M281 1270L281 1475L469 1475L469 1270L281 1270M654 1270L654 1475L842 1475L842 1270L654 1270Z"  horiz-adv-x="1139" vert-adv-y="2048"  />

      
      <glyph glyph-name="uni2020" unicode="&#x2020;" d="M472-346L472 866L73 866L73 1026L472 1026L472 1432L652 1432L652 1026L1054 1026L1054 866L652 866L652-346L472-346Z"  horiz-adv-x="1139" vert-adv-y="2048"  />

      
      <glyph glyph-name="unib0" unicode="&#xb0;" d="M128 1214Q128 1329 209.50 1410Q291 1491 405 1491Q521 1491 602 1410Q683 1329 683 1214Q683 1099 601.50 1017.50Q520 936 405 936Q291 936 209.50 1017Q128 1098 128 1214M237 1214Q237 1144 286.50 1094.50Q336 1045 406 1045Q475 1045 524.50 1094.50Q574 1144 574 1214Q574 1284 524.50 1333.50Q475 1383 406 1383Q336 1383 286.50 1333.50Q237 1284 237 1214Z"  horiz-adv-x="819" vert-adv-y="2048"  />

      
      <glyph glyph-name="unia2" unicode="&#xa2;" d="M744 894L522 128Q555 119 583 119Q687 119 762.50 190Q838 261 855 389L1034 369Q1001 184 877.50 78Q754-28 586-28Q537-28 483-14L365-409L253-377L368 21Q253 76 180 204.50Q107 333 107 526Q107 704 165.50 831.50Q224 959 340.50 1023Q457 1087 578 1087Q614 1087 678 1079L791 1466L901 1434L789 1047Q888 1004 941 931.50Q994 859 1015 750L840 723Q814 835 744 894M638 940Q606 943 588 943Q506 943 434.50 897.50Q363 852 327.50 756.50Q292 661 292 535Q292 403 324 312Q356 221 415 177L638 940Z"  horiz-adv-x="1139" vert-adv-y="2048"  />

      
      <glyph glyph-name="unia3" unicode="&#xa3;" d="M396 809L711 809L711 661L427 661Q446 617 446 573Q446 486 404.50 389Q363 292 268 191Q347 213 412 213Q495 213 599 188Q771 147 832 147Q906 147 1024 203L1082 38Q990-1 939.50-13Q889-25 839-25Q797-25 754-17Q727-12 624.50 19.50Q522 51 492 57Q445 65 398 65Q326 65 244.50 40Q163 15 96-28L27 145Q123 198 190 296.50Q257 395 257 537Q257 598 240 661L44 661L44 809L198 809Q165 921 156 972.50Q147 1024 147 1073Q147 1281 301 1398Q425 1491 601 1491Q782 1491 899.50 1391.50Q1017 1292 1044 1112L865 1085Q850 1205 775.50 1274Q701 1343 597 1343Q486 1343 412.50 1271.50Q339 1200 339 1099Q339 988 396 809Z"  horiz-adv-x="1139" vert-adv-y="2048"  />

      
      <glyph glyph-name="unia7" unicode="&#xa7;" d="M143-70L324-44Q352-174 413-226.50Q474-279 579-279Q681-279 738.50-227Q796-175 796-105Q796-54 760-11Q698 64 420 234Q272 325 213.50 376.50Q155 428 118 498Q81 568 81 644Q81 740 141 818Q201 896 306 927Q235 995 206 1052.50Q177 1110 177 1175Q177 1303 277 1397Q377 1491 542 1491Q729 1491 834 1402Q939 1313 960 1144L773 1125Q752 1247 699.50 1295Q647 1343 558 1343Q466 1343 409.50 1293.50Q353 1244 353 1184Q353 1132 389 1088Q445 1020 695 868Q852 772 907 727Q978 667 1011.50 603Q1045 539 1045 464Q1045 351 972 271Q930 225 818 178Q898 117 937.50 47Q977-23 977-103Q977-191 927-269.50Q877-348 783-389.50Q689-431 580-431Q389-431 277-335.50Q165-240 143-70M728 244Q802 282 838.50 332.50Q875 383 875 431Q875 488 823 551Q770 614 598 720Q461 804 394 858Q313 812 278.50 766Q244 720 244 664Q244 601 290 544Q336 487 497 392Q631 313 728 244Z"  horiz-adv-x="1139" vert-adv-y="2048"  />

      
      <glyph glyph-name="uni2022" unicode="&#x2022;" d="M109 718Q109 823 183.50 897Q258 971 362 971Q467 971 541.50 897Q616 823 616 718Q616 613 541.50 538.50Q467 464 362 464Q258 464 183.50 538.50Q109 613 109 718Z"  horiz-adv-x="717" vert-adv-y="2048"  />

      
      <glyph glyph-name="unib6" unicode="&#xb6;" d="M405-407L405 638Q218 648 109.50 759.50Q1 871 1 1044Q1 1237 121.50 1351.50Q242 1466 474 1466L1107 1466L1107 1293L963 1293L963-407L793-407L793 1293L570 1293L570-407L405-407Z"  horiz-adv-x="1100" vert-adv-y="2048"  />

      
      <glyph glyph-name="unidf" unicode="&#xdf;" d="M153 0L153 999Q153 1182 197.50 1280.50Q242 1379 346 1435Q450 1491 580 1491Q753 1491 852 1404.50Q951 1318 951 1204Q951 1153 933 1099Q915 1045 869 964.50Q823 884 811 852.50Q799 821 799 797Q799 765 821 734Q842 702 942 637Q1078 548 1123 494Q1187 417 1187 312Q1187 173 1084.50 74Q982-25 822-25Q696-25 601 42.50Q506 110 459 216L614 288Q664 195 714 159Q764 123 819 123Q895 123 949 175Q1003 227 1003 297Q1003 353 971 393Q950 419 859 481Q693 595 654 652Q614 709 614 769Q614 808 627.50 848Q641 888 692.50 976Q744 1064 760 1108Q776 1152 776 1186Q776 1248 721.50 1295.50Q667 1343 576 1343Q469 1343 401 1277Q333 1211 333 991L333 0L153 0Z"  horiz-adv-x="1251" vert-adv-y="2048"  />

      
      <glyph glyph-name="uniae" unicode="&#xae;" d="M758 1491Q948 1491 1129 1393.50Q1310 1296 1411 1114.50Q1512 933 1512 736Q1512 541 1412.50 361Q1313 181 1133.50 81.50Q954-18 758-18Q562-18 382.50 81.50Q203 181 103 361Q3 541 3 736Q3 933 104.50 1114.50Q206 1296 387 1393.50Q568 1491 758 1491M758 1366Q599 1366 448.50 1284.50Q298 1203 213 1051.50Q128 900 128 736Q128 573 211.50 423.50Q295 274 445 190.50Q595 107 758 107Q921 107 1071 190.50Q1221 274 1304 423.50Q1387 573 1387 736Q1387 900 1302.50 1051.50Q1218 1203 1067 1284.50Q916 1366 758 1366M427 319L427 1131L706 1131Q849 1131 913 1108.50Q977 1086 1015 1030Q1053 974 1053 911Q1053 822 989.50 756Q926 690 821 682Q864 664 890 639Q939 591 1010 478L1109 319L949 319L877 447Q792 598 740 636Q704 664 635 664L558 664L558 319L427 319M558 776L717 776Q831 776 872.50 810Q914 844 914 900Q914 936 894 964.50Q874 993 838.50 1007Q803 1021 707 1021L558 1021L558 776Z"  horiz-adv-x="1509" vert-adv-y="2048"  />

      
      <glyph glyph-name="unia9" unicode="&#xa9;" d="M758 1491Q948 1491 1129 1393.50Q1310 1296 1411 1114.50Q1512 933 1512 736Q1512 541 1412.50 361Q1313 181 1133.50 81.50Q954-18 758-18Q562-18 382.50 81.50Q203 181 103 361Q3 541 3 736Q3 933 104.50 1114.50Q206 1296 387 1393.50Q568 1491 758 1491M758 1366Q599 1366 448.50 1284.50Q298 1203 213 1051.50Q128 900 128 736Q128 573 211.50 423.50Q295 274 445 190.50Q595 107 758 107Q921 107 1071 190.50Q1221 274 1304 423.50Q1387 573 1387 736Q1387 900 1302.50 1051.50Q1218 1203 1067 1284.50Q916 1366 758 1366M1000 614L1123 578Q1093 453 995.50 378.50Q898 304 759 304Q583 304 473 418Q363 532 363 734Q363 866 413 963.50Q463 1061 555.50 1110.50Q648 1160 767 1160Q900 1160 988 1096.50Q1076 1033 1108 924L989 895Q959 969 900.50 1008.50Q842 1048 763 1048Q648 1048 573.50 966Q499 884 499 731Q499 578 569.50 499.50Q640 421 752 421Q842 421 910 473Q978 525 1000 614Z"  horiz-adv-x="1509" vert-adv-y="2048"  />

      
      <glyph glyph-name="uni2122" unicode="&#x2122;" d="M489 651L489 1345L225 1345L225 1466L891 1466L891 1345L625 1345L625 651L489 651M982 651L982 1466L1182 1466L1388 815L1587 1466L1783 1466L1783 651L1659 651L1659 1335L1449 651L1326 651L1107 1345L1107 651L982 651Z"  horiz-adv-x="2048" vert-adv-y="2048"  />

      
      <glyph glyph-name="unib4" unicode="&#xb4;" d="M222 1194L355 1474L591 1474L371 1194L222 1194Z"  horiz-adv-x="682" vert-adv-y="2048"  />

      
      <glyph glyph-name="unia8" unicode="&#xa8;" d="M61 1270L61 1475L249 1475L249 1270L61 1270M434 1270L434 1475L622 1475L622 1270L434 1270Z"  horiz-adv-x="682" vert-adv-y="2048"  />

      
      <glyph glyph-name="uni2260" unicode="&#x2260;" d="M495 417L301-28L165-28L360 417L78 417L78 585L434 585L556 862L78 862L78 1030L629 1030L825 1474L959 1474L764 1030L1046 1030L1046 862L690 862L569 585L1046 585L1046 417L495 417Z"  horiz-adv-x="1124" vert-adv-y="2048"  />

      
      <glyph glyph-name="unic6" unicode="&#xc6;" d="M1 0L706 1466L1909 1466L1909 1293L1172 1293L1172 842L1857 842L1857 670L1172 670L1172 173L1936 173L1936 0L977 0L977 423L411 423L211 0L1 0M493 595L977 595L977 1293L832 1293L493 595Z"  horiz-adv-x="2048" vert-adv-y="2048"  />

      
      <glyph glyph-name="unid8" unicode="&#xd8;" d="M1250 1332L1418 1520L1517 1436L1341 1238Q1427 1110 1457 1014Q1497 888 1497 732Q1497 507 1406 331Q1315 155 1150.50 65Q986-25 801-25Q663-25 551 14Q465 44 350 129L182-59L83 25L259 222Q161 371 128 476.50Q95 582 95 730Q95 956 185 1132.50Q275 1309 437.50 1400Q600 1491 799 1491Q933 1491 1033.50 1455.50Q1134 1420 1250 1332M1130 1197Q1036 1271 965.50 1298Q895 1325 800 1325Q581 1325 438 1176.50Q295 1028 295 733Q295 617 317 527Q333 460 384 362L1130 1197M1212 1094L469 262Q546 199 611 174Q696 141 795 141Q1013 141 1155 295Q1297 449 1297 727Q1297 935 1212 1094Z"  horiz-adv-x="1593" vert-adv-y="2048"  />

      
      <glyph glyph-name="uni221E" unicode="&#x221E;" d="M689 812Q794 944 853 986Q933 1044 1022 1044Q1127 1044 1218.50 968Q1310 892 1310 723Q1310 605 1276 537.50Q1242 470 1170 429Q1098 388 1022 388Q933 388 853 445Q794 488 689 620Q553 449 400 449Q299 449 226.50 525.50Q154 602 154 716Q154 829 226.50 906Q299 983 400 983Q553 983 689 812M758 717Q845 582 917 532Q963 499 1020 499Q1096 499 1147.50 555Q1199 611 1199 713Q1199 819 1146.50 875Q1094 931 1016 931Q967 931 924 903Q866 864 758 717M620 716Q540 816 492 844.50Q444 873 400 873Q342 873 303.50 832Q265 791 265 719Q265 648 305 605.50Q345 563 402 563Q503 563 620 716Z"  horiz-adv-x="1460" vert-adv-y="2048"  />

      
      <glyph glyph-name="unib1" unicode="&#xb1;" d="M477 260L477 663L78 663L78 830L477 830L477 1229L647 1229L647 830L1046 830L1046 663L647 663L647 260L477 260M1046 0L78 0L78 168L1046 168L1046 0Z"  horiz-adv-x="1124" vert-adv-y="2048"  />

      
      <glyph glyph-name="uni2264" unicode="&#x2264;" d="M77 762L77 930L1048 1340L1048 1160L278 845L1048 526L1048 347L77 762M1046 106L78 106L78 273L1046 273L1046 106Z"  horiz-adv-x="1124" vert-adv-y="2048"  />

      
      <glyph glyph-name="uni2265" unicode="&#x2265;" d="M1048 762L77 347L77 526L846 845L77 1160L77 1340L1048 930L1048 762M1046 106L78 106L78 273L1046 273L1046 106Z"  horiz-adv-x="1124" vert-adv-y="2048"  />

      
      <glyph glyph-name="unia5" unicode="&#xa5;" d="M477 0L477 325L62 325L62 464L477 464L477 607L62 607L62 755L403 755L-3 1466L197 1466L487 950Q536 862 563 796Q586 849 645 959L919 1466L1133 1466L728 755L1069 755L1069 607L657 607L657 464L1069 464L1069 325L657 325L657 0L477 0Z"  horiz-adv-x="1139" vert-adv-y="2048"  />

      
      <glyph glyph-name="unib5" unicode="&#xb5;" d="M1018 1062L1018 0L857 0L857 126Q805 46 754 16Q684-25 591-25Q508-25 444 8Q396 33 338 107L338-407L160-407L160 1062L338 1062L338 612Q338 367 364 294.50Q390 222 448.50 180Q507 138 583 138Q663 138 726 182Q789 226 815 295.50Q841 365 841 609L841 1062L1018 1062Z"  horiz-adv-x="1180" vert-adv-y="2048"  />

      
      <glyph glyph-name="uni2202" unicode="&#x2202;" d="M426 1138L291 1198Q361 1355 459 1423Q557 1491 651 1491Q727 1491 788.50 1451.50Q850 1412 881 1361Q928 1282 950.50 1174Q973 1066 973 926Q973 638 886.50 413.50Q800 189 653 82Q506-25 364-25Q227-25 141.50 66Q56 157 56 322Q56 548 209 709Q406 916 858 924Q854 1092 834 1180Q814 1268 766 1315.50Q718 1363 653 1363Q591 1363 532 1313.50Q473 1264 426 1138M854 796Q610 782 496.50 728Q383 674 309.50 551.50Q236 429 236 303Q236 220 287 166Q338 112 406 112Q481 112 566 167Q683 243 756.50 401.50Q830 560 854 796Z"  horiz-adv-x="1012" vert-adv-y="2048"  />

      
      <glyph glyph-name="uni2211" unicode="&#x2211;" d="M139 1491L1376 1491L1376 1327L388 1327L995 552L346-270L1386-270L1386-431L122-431L122-244L742 544L139 1316L139 1491Z"  horiz-adv-x="1460" vert-adv-y="2048"  />

      
      <glyph glyph-name="uni220F" unicode="&#x220F;" d="M161 1491L1523 1491L1523-431L1332-431L1332 1317L354 1317L354-431L161-431L161 1491Z"  horiz-adv-x="1686" vert-adv-y="2048"  />

      
      <glyph glyph-name="uni222B" unicode="&#x222B;" d="M201 948L218 1479Q227 1632 268 1733Q295 1798 342.50 1830.50Q390 1863 435 1863Q485 1863 522.50 1829.50Q560 1796 560 1756Q560 1709 533.50 1680.50Q507 1652 468 1652Q433 1652 392 1688Q369 1708 352 1708Q335 1708 323.50 1693.50Q312 1679 312 1644Q312 1602 321 1499Q358 1089 358 834Q358 767 342 246Q334-49 252-153Q198-220 118-220Q66-220 33-186Q0-152 0-99Q0-54 25.50-27Q51 0 90 0Q130 0 159-32Q188-64 208-64Q225-64 236-50Q247-36 247-3Q247 39 238 117Q201 432 201 948Z"  horiz-adv-x="561" vert-adv-y="2048"  />

      
      <glyph glyph-name="uniaa" unicode="&#xaa;" d="M548 853Q426 746 292 746Q179 746 113 807.50Q47 869 47 965Q47 1013 63 1049Q79 1085 110.50 1113Q142 1141 192 1158Q227 1169 291 1179L438 1201Q510 1215 534 1221Q533 1291 520 1315Q507 1339 471.50 1356.50Q436 1374 377 1374Q298 1374 259 1341.50Q220 1309 211 1249L74 1283Q86 1372 162 1431.50Q238 1491 379 1491Q543 1491 611 1430Q678 1368 678 1249L678 1009L677 948Q677 814 718 764L570 764Q550 804 548 853M533 1104Q480 1090 341 1068Q251 1054 224 1029Q196 1003 196 965Q196 924 230 895Q264 866 326 866Q399 866 453 905Q507 944 525 1001Q532 1021 533 1104Z"  horiz-adv-x="758" vert-adv-y="2048"  />

      
      <glyph glyph-name="uniba" unicode="&#xba;" d="M373 1491Q518 1491 609.50 1391Q701 1291 701 1115Q701 940 609 840Q517 740 374 740Q229 740 137 838Q45 936 45 1111Q45 1291 136.50 1391Q228 1491 373 1491M373 1358Q292 1358 242.50 1301Q193 1244 193 1115Q193 989 243.50 930.50Q294 872 373 872Q453 872 503 930.50Q553 989 553 1120Q553 1242 502.50 1300Q452 1358 373 1358Z"  horiz-adv-x="748" vert-adv-y="2048"  />

      
      <glyph glyph-name="uni2126" unicode="&#x2126;" d="M496 160Q388 227 331 290Q244 386 197 515.50Q150 645 150 802Q150 998 229.50 1162.50Q309 1327 460.50 1415Q612 1503 808 1503Q1144 1503 1324 1249Q1455 1063 1455 801Q1455 633 1401 503.50Q1347 374 1260 281Q1207 223 1111 160L1475 166L1475 0L900 0L900 177Q980 217 1024 255Q1096 316 1146 400Q1196 484 1221.50 579Q1247 674 1247 777Q1247 915 1197.50 1054.50Q1148 1194 1047.50 1267Q947 1340 804 1340Q613 1340 508 1220Q362 1051 362 780Q362 563 453 407.50Q544 252 704 180L704 0L127 0L127 168L496 160Z"  horiz-adv-x="1573" vert-adv-y="2048"  />

      
      <glyph glyph-name="unie6" unicode="&#xe6;" d="M1734 325Q1684 158 1564 67Q1444-24 1266-24Q1139-24 1043.50 24Q948 72 871 174Q767 72 660.50 24Q554-24 431-24Q259-24 163.50 64.50Q68 153 68 280Q68 366 117.50 441.50Q167 517 255.50 556Q344 595 538 620Q688 640 790 669Q791 694 791 710Q791 836 738.50 886.50Q686 937 555 937Q468 937 408 916Q348 895 319.50 856.50Q291 818 272 733L97 754Q125 871 177.50 939.50Q230 1008 328 1047Q426 1086 557 1086Q724 1086 826 1036Q885 1007 925 943Q989 1013 1070 1049.50Q1151 1086 1266 1086Q1428 1086 1534 1007.50Q1640 929 1689 800Q1738 671 1738 546Q1738 527 1736 485L969 485Q971 341 1004.50 276Q1038 211 1111.50 167.50Q1185 124 1273 124Q1376 124 1447.50 183Q1519 242 1546 349L1734 325M969 633L1553 633Q1539 791 1463 864Q1387 937 1265 937Q1139 937 1058.50 857Q978 777 969 633M793 533Q714 499 471 460Q362 443 318 409Q259 362 259 286Q259 215 312 166.50Q365 118 466 118Q581 118 666.50 175Q752 232 778 317Q793 369 793 533Z"  horiz-adv-x="1821" vert-adv-y="2048"  />

      
      <glyph glyph-name="unif8" unicode="&#xf8;" d="M919 999L1018 1127L1114 1057L1007 919Q1070 833 1093 763Q1124 663 1124 530Q1124 230 955 89Q818-24 625-24Q466-24 344 56L239-79L145-8L253 133Q194 201 169 269Q129 378 129 516Q129 817 276 951.50Q423 1086 621 1086Q703 1086 772 1065Q841 1044 919 999M818 867Q727 937 627 937Q494 937 404 835Q314 733 314 531Q314 381 366 280L818 867M893 770L444 187Q522 124 620 124Q759 124 849.50 226Q940 328 940 532Q940 608 928 665Q920 707 893 770Z"  horiz-adv-x="1251" vert-adv-y="2048"  />

      
      <glyph glyph-name="unibf" unicode="&#xbf;" d="M733 1062L733 857L528 857L528 1062L733 1062M721 701Q722 667 722 650Q722 540 692 463Q670 405 621 346Q585 303 491.50 221Q398 139 370.50 90Q343 41 343-17Q343-123 425-202Q507-281 626-281Q740-281 817.50-209Q895-137 919 15L1103-6Q1078-209 954.50-319Q831-429 629-429Q413-429 285.50-312Q158-195 158-29Q158 68 202.50 148Q247 228 378 344Q467 423 494 460Q521 497 533.50 545Q546 593 548 701L721 701Z"  horiz-adv-x="1251" vert-adv-y="2048"  />

      
      <glyph glyph-name="unia1" unicode="&#xa1;" d="M447 1062L447 857L240 857L240 1062L447 1062M400 697L455-79L455-404L232-404L232-79L284 697L400 697Z"  horiz-adv-x="682" vert-adv-y="2048"  />

      
      <glyph glyph-name="uniac" unicode="&#xac;" d="M1082 424L912 424L912 862L114 862L114 1030L1082 1030L1082 424Z"  horiz-adv-x="1196" vert-adv-y="2048"  />

      
      <glyph glyph-name="uni221A" unicode="&#x221A;" d="M1050 1869L1124 1869L812-78L316 943L118 852L84 916L385 1067L790 244L1050 1869Z"  horiz-adv-x="1124" vert-adv-y="2048"  />

      
      <glyph glyph-name="uni0192" unicode="&#x0192;" d="M46-405L81-250Q182-272 233-272Q287-272 316-244Q345-216 361-120L538 922L337 922L361 1062L562 1062L586 1195Q608 1315 631 1360Q662 1422 719.50 1457Q777 1492 870 1492Q950 1492 1085 1454L1050 1301Q947 1325 896 1325Q840 1325 812 1297.50Q784 1270 765 1165L746 1062L950 1062L925 922L721 922L530-170Q504-318 443-374.50Q382-431 270-431Q176-431 46-405Z"  horiz-adv-x="1139" vert-adv-y="2048"  />

      
      <glyph glyph-name="uni2248" unicode="&#x2248;" d="M51 738L51 943Q157 1063 329 1063Q389 1063 454.50 1046Q520 1029 643 976Q712 946 746.50 937.50Q781 929 816 929Q881 929 950.50 968Q1020 1007 1074 1066L1074 854Q1010 794 944.50 767Q879 740 797 740Q737 740 683 753.50Q629 767 510 820.50Q391 874 312 874Q248 874 191.50 846.50Q135 819 51 738M51 376L51 581Q157 701 329 701Q389 701 454.50 684Q520 667 643 614Q712 585 746.50 576Q781 567 816 567Q881 567 950.50 606Q1020 645 1074 704L1074 492Q1010 432 944.50 405Q879 378 797 378Q737 378 683 392Q629 406 510 459Q391 512 312 512Q248 512 191.50 484.50Q135 457 51 376Z"  horiz-adv-x="1124" vert-adv-y="2048"  />

      
      <glyph glyph-name="uni2206" unicode="&#x2206;" d="M1226 0L26 0L654 1387L1226 0M990 82L591 1049L151 82L990 82Z"  horiz-adv-x="1253" vert-adv-y="2048"  />

      
      <glyph glyph-name="uniab" unicode="&#xab;" d="M340 528L599 72L453 72L134 528L453 984L601 984L340 528M727 528L991 72L839 72L526 528L839 984L991 984L727 528Z"  horiz-adv-x="1139" vert-adv-y="2048"  />

      
      <glyph glyph-name="unibb" unicode="&#xbb;" d="M791 528L530 984L678 984L997 528L678 72L531 72L791 528M404 528L140 984L291 984L605 528L291 72L140 72L404 528Z"  horiz-adv-x="1139" vert-adv-y="2048"  />

      
      <glyph glyph-name="uni2026" unicode="&#x2026;" d="M239 0L239 205L444 205L444 0L239 0M922 0L922 205L1127 205L1127 0L922 0M1604 0L1604 205L1810 205L1810 0L1604 0Z"  horiz-adv-x="2048" vert-adv-y="2048"  />

      
      <glyph glyph-name="unic0" unicode="&#xc0;" d="M-3 0L560 1466L769 1466L1369 0L1148 0L977 444L364 444L203 0L-3 0M420 602L917 602L764 1008Q694 1193 660 1312Q632 1171 581 1032L420 602M824 1556L679 1556L448 1836L689 1836L824 1556Z"  horiz-adv-x="1366" vert-adv-y="2048"  />

      
      <glyph glyph-name="unic3" unicode="&#xc3;" d="M-3 0L560 1466L769 1466L1369 0L1148 0L977 444L364 444L203 0L-3 0M420 602L917 602L764 1008Q694 1193 660 1312Q632 1171 581 1032L420 602M349 1556Q348 1660 406 1722Q463 1784 552 1784Q614 1784 721 1730Q780 1700 815 1700Q847 1700 864 1717.50Q881 1735 888 1787L1018 1787Q1015 1673 960.50 1616Q906 1559 822 1559Q759 1559 656 1615Q589 1651 558 1651Q524 1651 503 1627Q481 1603 482 1556L349 1556Z"  horiz-adv-x="1366" vert-adv-y="2048"  />

      
      <glyph glyph-name="unid5" unicode="&#xd5;" d="M99 714Q99 1079 295 1285.50Q491 1492 801 1492Q1004 1492 1167 1395Q1330 1298 1415.50 1124.50Q1501 951 1501 731Q1501 508 1411 332Q1321 156 1156 65.50Q991-25 800-25Q593-25 430 75Q267 175 183 348Q99 521 99 714M299 711Q299 446 441.50 293.50Q584 141 799 141Q1018 141 1159.50 295Q1301 449 1301 732Q1301 911 1240.50 1044.50Q1180 1178 1063.50 1251.50Q947 1325 802 1325Q596 1325 447.50 1183.50Q299 1042 299 711M466 1556Q465 1660 523 1722Q580 1784 669 1784Q731 1784 838 1730Q897 1700 932 1700Q964 1700 981 1717.50Q998 1735 1005 1787L1135 1787Q1132 1673 1077.50 1616Q1023 1559 939 1559Q876 1559 773 1615Q706 1651 675 1651Q641 1651 620 1627Q598 1603 599 1556L466 1556Z"  horiz-adv-x="1593" vert-adv-y="2048"  />

      
      <glyph glyph-name="uni0152" unicode="&#x0152;" d="M1983 173L1983 0L1121 0L1121 212Q986-25 721-25Q420-25 265 207Q129 412 129 735Q129 1057 271 1274Q413 1491 721 1491Q985 1491 1121 1268L1121 1466L1952 1466L1952 1293L1302 1293L1302 845L1901 845L1901 673L1302 673L1302 173L1983 173M720 1334Q619 1334 523 1269Q427 1204 378 1071.50Q329 939 329 720Q329 417 444.50 274Q560 131 720 131Q881 131 995.50 273.50Q1110 416 1110 745Q1110 1051 994.50 1192.50Q879 1334 720 1334Z"  horiz-adv-x="2048" vert-adv-y="2048"  />

      
      <glyph glyph-name="uni0153" unicode="&#x0153;" d="M978 175Q902 76 803 26Q704-24 582-24Q357-24 219.50 119Q82 262 82 518Q82 687 140.50 820.50Q199 954 318.50 1020Q438 1086 584 1086Q722 1086 824.50 1028.50Q927 971 978 883Q1042 976 1142.50 1031Q1243 1086 1367 1086Q1587 1086 1723 935Q1859 784 1857 483L1073 483Q1076 317 1165.50 220.50Q1255 124 1389 124Q1488 124 1559.50 179.50Q1631 235 1663 346L1843 320Q1800 155 1682.50 65.50Q1565-24 1386-24Q1252-24 1146 28.50Q1040 81 978 175M267 533Q267 347 338 250Q430 124 577 124Q706 124 798 230Q890 336 890 535Q890 733 799.50 835.50Q709 938 577 938Q490 938 417 889Q344 840 305.50 744Q267 648 267 533M1080 631L1667 631Q1655 782 1575.50 860Q1496 938 1378 938Q1258 938 1174.50 856Q1091 774 1080 631Z"  horiz-adv-x="1933" vert-adv-y="2048"  />

      
      <glyph glyph-name="uni2013" unicode="&#x2013;" d="M-4 458L-4 603L1135 603L1135 458L-4 458Z"  horiz-adv-x="1139" vert-adv-y="2048"  />

      
      <glyph glyph-name="uni2014" unicode="&#x2014;" d="M0 458L0 603L2048 603L2048 458L0 458Z"  horiz-adv-x="2048" vert-adv-y="2048"  />

      
      <glyph glyph-name="uni201C" unicode="&#x201C;" d="M276 1220L276 1011L83 1011L83 1176Q83 1310 115 1370Q157 1450 248 1491L292 1421Q237 1398 211 1352.50Q185 1307 182 1220L276 1220M586 1220L586 1011L393 1011L393 1176Q393 1310 425 1370Q467 1450 558 1491L602 1421Q547 1398 521 1352.50Q495 1307 492 1220L586 1220Z"  horiz-adv-x="682" vert-adv-y="2048"  />

      
      <glyph glyph-name="uni201D" unicode="&#x201D;" d="M87 1272L87 1481L280 1481L280 1316Q280 1182 249 1123Q206 1042 115 1001L71 1072Q125 1094 151.50 1141.50Q178 1189 181 1272L87 1272M397 1272L397 1481L590 1481L590 1316Q590 1182 559 1123Q516 1042 425 1001L381 1072Q435 1094 461.50 1141.50Q488 1189 491 1272L397 1272Z"  horiz-adv-x="682" vert-adv-y="2048"  />

      
      <glyph glyph-name="uni2018" unicode="&#x2018;" d="M321 1220L321 1011L128 1011L128 1176Q128 1310 160 1370Q202 1450 293 1491L337 1421Q282 1398 256 1352.50Q230 1307 227 1220L321 1220Z"  horiz-adv-x="455" vert-adv-y="2048"  />

      
      <glyph glyph-name="uni2019" unicode="&#x2019;" d="M124 1272L124 1481L317 1481L317 1316Q317 1182 286 1123Q243 1042 152 1001L108 1072Q162 1094 188.50 1141.50Q215 1189 218 1272L124 1272Z"  horiz-adv-x="455" vert-adv-y="2048"  />

      
      <glyph glyph-name="unif7" unicode="&#xf7;" d="M459 922L459 1127L664 1127L664 922L459 922M1046 639L78 639L78 807L1046 807L1046 639M459 319L459 524L664 524L664 319L459 319Z"  horiz-adv-x="1124" vert-adv-y="2048"  />

      
      <glyph glyph-name="uni25CA" unicode="&#x25CA;" d="M549 1422L967 709L549 0L438 0L47 709L438 1422L549 1422M495 1325L155 709L495 94L854 709L495 1325Z"  horiz-adv-x="1012" vert-adv-y="2048"  />

      
      <glyph glyph-name="uniff" unicode="&#xff;" d="M127-409L107-240Q166-256 210-256Q270-256 306-236Q342-216 365-180Q382-153 420-46Q425-31 436-2L33 1062L227 1062L448 447Q491 330 525 201Q556 325 599 443L826 1062L1006 1062L602-18Q537-193 501-259Q453-348 391-389.50Q329-431 243-431Q191-431 127-409M243 1270L243 1475L431 1475L431 1270L243 1270M616 1270L616 1475L804 1475L804 1270L616 1270Z"  horiz-adv-x="1024" vert-adv-y="2048"  />

      
      <glyph glyph-name="uni0178" unicode="&#x0178;" d="M571 0L571 621L6 1466L242 1466L531 1024Q611 900 680 776Q746 891 840 1035L1124 1466L1350 1466L765 621L765 0L571 0M397 1556L397 1761L585 1761L585 1556L397 1556M770 1556L770 1761L958 1761L958 1556L770 1556Z"  horiz-adv-x="1366" vert-adv-y="2048"  />

      
      <glyph glyph-name="uni2044" unicode="&#x2044;" d="M-455-57L646 1491L803 1491L-298-57L-455-57Z"  horiz-adv-x="342" vert-adv-y="2048"  />

      
      <glyph glyph-name="uni2215" unicode="&#x2215;" d="M-455-57L646 1491L803 1491L-298-57L-455-57Z"  horiz-adv-x="342" vert-adv-y="2048"  />

      
      <glyph glyph-name="uni20AC" unicode="&#x20AC;" d="M790 1325Q622 1325 508 1244Q440 1196 385 1108Q329 1017 319 935L1001 935L974 801L303 801Q302 780 302 761Q302 684 303 669L947 669L919 535L324 535Q366 306 526 210Q641 141 775 141Q962 141 1067 239L1067 33Q942-25 791-25Q339-25 180 351Q148 427 125 535L-28 535L0 669L105 669Q102 711 102 760Q102 780 103 801L-28 801L0 935L116 935Q178 1261 439 1403Q600 1491 794 1491Q980 1491 1107 1410L1067 1224Q945 1325 790 1325Z"  horiz-adv-x="1139" vert-adv-y="2048"  />

      
      <glyph glyph-name="uni2039" unicode="&#x2039;" d="M291 527L556 72L407 72L92 527L407 984L556 984L291 527Z"  horiz-adv-x="682" vert-adv-y="2048"  />

      
      <glyph glyph-name="uni203A" unicode="&#x203A;" d="M357 530L92 984L241 984L545 536L241 72L92 72L357 530Z"  horiz-adv-x="682" vert-adv-y="2048"  />

      
      <glyph glyph-name="uniFB01" unicode="&#xFB01;" d="M183 0L183 923L23 923L23 1062L183 1062L183 1165Q183 1323 251 1407Q319 1491 466 1491Q565 1491 649 1468L621 1316Q568 1325 524 1325Q431 1325 397 1288Q363 1251 363 1131L363 1062L569 1062L569 923L363 923L363 0L183 0M705 1259L705 1466L885 1466L885 1259L705 1259M705 0L705 1062L885 1062L885 0L705 0Z"  horiz-adv-x="1024" vert-adv-y="2048"  />

      
      <glyph glyph-name="uniFB02" unicode="&#xFB02;" d="M183 0L183 923L23 923L23 1062L183 1062L183 1165Q183 1323 251 1407Q319 1491 466 1491Q565 1491 649 1468L621 1316Q568 1325 524 1325Q431 1325 397 1288Q363 1251 363 1131L363 1062L569 1062L569 923L363 923L363 0L183 0M703 0L703 1466L883 1466L883 0L703 0Z"  horiz-adv-x="1024" vert-adv-y="2048"  />

      
      <glyph glyph-name="uni2021" unicode="&#x2021;" d="M475-346L475 24L73 24L73 185L475 185L475 910L73 910L73 1071L475 1071L475 1446L655 1446L655 1071L1058 1071L1058 910L655 910L655 185L1058 185L1058 24L655 24L655-346L475-346Z"  horiz-adv-x="1139" vert-adv-y="2048"  />

      
      <glyph glyph-name="uni2219" unicode="&#x2219;" d="M185 619L185 824L390 824L390 619L185 619Z"  horiz-adv-x="569" vert-adv-y="2048"  />

      
      <glyph glyph-name="uni201A" unicode="&#x201A;" d="M124 0L124 209L317 209L317 44Q317-90 286-149Q243-230 152-271L108-200Q162-178 188.50-130.50Q215-83 218 0L124 0Z"  horiz-adv-x="455" vert-adv-y="2048"  />

      
      <glyph glyph-name="uni201E" unicode="&#x201E;" d="M87 0L87 209L280 209L280 44Q280-90 249-149Q206-230 115-271L71-200Q125-178 151.50-130.50Q178-83 181 0L87 0M397 0L397 209L590 209L590 44Q590-90 559-149Q516-230 425-271L381-200Q435-178 461.50-130.50Q488-83 491 0L397 0Z"  horiz-adv-x="682" vert-adv-y="2048"  />

      
      <glyph glyph-name="uni2030" unicode="&#x2030;" d="M320-54L921 1491L1052 1491L452-54L320-54M37 1099Q37 1298 115.50 1388.50Q194 1479 323 1479Q451 1479 531 1388Q611 1297 611 1103Q611 907 541 807.50Q471 708 325 708Q197 708 117 801Q37 894 37 1099M185 1091Q185 939 224.50 886Q264 833 329 833Q388 833 420 878Q463 938 463 1093Q463 1245 419 1308Q385 1355 325 1355Q263 1355 230 1309Q185 1246 185 1091M763 336Q763 535 841.50 625.50Q920 716 1048 716Q1176 716 1256.50 625Q1337 534 1337 340Q1337 144 1267 45Q1197-54 1051-54Q923-54 843 38.50Q763 131 763 336M911 328Q911 177 950.50 123.50Q990 70 1055 70Q1114 70 1146 115Q1189 176 1189 330Q1189 483 1144 545Q1110 592 1051 592Q989 592 956 546Q911 484 911 328M1437 336Q1437 535 1515.50 625.50Q1594 716 1723 716Q1851 716 1931 625Q2011 534 2011 340Q2011 144 1941.50 45Q1872-54 1725-54Q1597-54 1517 38.50Q1437 131 1437 336M1585 328Q1585 177 1624.50 123.50Q1664 70 1729 70Q1788 70 1820 115Q1863 176 1863 330Q1863 483 1819 545Q1785 592 1725 592Q1663 592 1630 546Q1585 484 1585 328Z"  horiz-adv-x="2048" vert-adv-y="2048"  />

      
      <glyph glyph-name="unic2" unicode="&#xc2;" d="M-3 0L560 1466L769 1466L1369 0L1148 0L977 444L364 444L203 0L-3 0M420 602L917 602L764 1008Q694 1193 660 1312Q632 1171 581 1032L420 602M664 1726L551 1556L345 1556L561 1836L753 1836L978 1556L774 1556L664 1726Z"  horiz-adv-x="1366" vert-adv-y="2048"  />

      
      <glyph glyph-name="unica" unicode="&#xca;" d="M162 0L162 1466L1222 1466L1222 1293L356 1293L356 844L1167 844L1167 672L356 672L356 173L1256 173L1256 0L162 0M707 1726L594 1556L388 1556L604 1836L796 1836L1021 1556L817 1556L707 1726Z"  horiz-adv-x="1366" vert-adv-y="2048"  />

      
      <glyph glyph-name="unic1" unicode="&#xc1;" d="M-3 0L560 1466L769 1466L1369 0L1148 0L977 444L364 444L203 0L-3 0M420 602L917 602L764 1008Q694 1193 660 1312Q632 1171 581 1032L420 602M541 1556L674 1836L910 1836L690 1556L541 1556Z"  horiz-adv-x="1366" vert-adv-y="2048"  />

      
      <glyph glyph-name="unicb" unicode="&#xcb;" d="M162 0L162 1466L1222 1466L1222 1293L356 1293L356 844L1167 844L1167 672L356 672L356 173L1256 173L1256 0L162 0M425 1556L425 1761L613 1761L613 1556L425 1556M798 1556L798 1761L986 1761L986 1556L798 1556Z"  horiz-adv-x="1366" vert-adv-y="2048"  />

      
      <glyph glyph-name="unic8" unicode="&#xc8;" d="M162 0L162 1466L1222 1466L1222 1293L356 1293L356 844L1167 844L1167 672L356 672L356 173L1256 173L1256 0L162 0M850 1556L705 1556L474 1836L715 1836L850 1556Z"  horiz-adv-x="1366" vert-adv-y="2048"  />

      
      <glyph glyph-name="unicd" unicode="&#xcd;" d="M191 0L191 1466L385 1466L385 0L191 0M141 1556L274 1836L510 1836L290 1556L141 1556Z"  horiz-adv-x="569" vert-adv-y="2048"  />

      
      <glyph glyph-name="unice" unicode="&#xce;" d="M191 0L191 1466L385 1466L385 0L191 0M287 1726L174 1556L-32 1556L184 1836L376 1836L601 1556L397 1556L287 1726Z"  horiz-adv-x="569" vert-adv-y="2048"  />

      
      <glyph glyph-name="unicf" unicode="&#xcf;" d="M191 0L191 1466L385 1466L385 0L191 0M4 1556L4 1761L192 1761L192 1556L4 1556M377 1556L377 1761L565 1761L565 1556L377 1556Z"  horiz-adv-x="569" vert-adv-y="2048"  />

      
      <glyph glyph-name="unicc" unicode="&#xcc;" d="M191 0L191 1466L385 1466L385 0L191 0M430 1556L285 1556L54 1836L295 1836L430 1556Z"  horiz-adv-x="569" vert-adv-y="2048"  />

      
      <glyph glyph-name="unid3" unicode="&#xd3;" d="M99 714Q99 1079 295 1285.50Q491 1492 801 1492Q1004 1492 1167 1395Q1330 1298 1415.50 1124.50Q1501 951 1501 731Q1501 508 1411 332Q1321 156 1156 65.50Q991-25 800-25Q593-25 430 75Q267 175 183 348Q99 521 99 714M299 711Q299 446 441.50 293.50Q584 141 799 141Q1018 141 1159.50 295Q1301 449 1301 732Q1301 911 1240.50 1044.50Q1180 1178 1063.50 1251.50Q947 1325 802 1325Q596 1325 447.50 1183.50Q299 1042 299 711M677 1556L810 1836L1046 1836L826 1556L677 1556Z"  horiz-adv-x="1593" vert-adv-y="2048"  />

      
      <glyph glyph-name="unid4" unicode="&#xd4;" d="M99 714Q99 1079 295 1285.50Q491 1492 801 1492Q1004 1492 1167 1395Q1330 1298 1415.50 1124.50Q1501 951 1501 731Q1501 508 1411 332Q1321 156 1156 65.50Q991-25 800-25Q593-25 430 75Q267 175 183 348Q99 521 99 714M299 711Q299 446 441.50 293.50Q584 141 799 141Q1018 141 1159.50 295Q1301 449 1301 732Q1301 911 1240.50 1044.50Q1180 1178 1063.50 1251.50Q947 1325 802 1325Q596 1325 447.50 1183.50Q299 1042 299 711M798 1726L685 1556L479 1556L695 1836L887 1836L1112 1556L908 1556L798 1726Z"  horiz-adv-x="1593" vert-adv-y="2048"  />

      
      <glyph glyph-name="unid2" unicode="&#xd2;" d="M99 714Q99 1079 295 1285.50Q491 1492 801 1492Q1004 1492 1167 1395Q1330 1298 1415.50 1124.50Q1501 951 1501 731Q1501 508 1411 332Q1321 156 1156 65.50Q991-25 800-25Q593-25 430 75Q267 175 183 348Q99 521 99 714M299 711Q299 446 441.50 293.50Q584 141 799 141Q1018 141 1159.50 295Q1301 449 1301 732Q1301 911 1240.50 1044.50Q1180 1178 1063.50 1251.50Q947 1325 802 1325Q596 1325 447.50 1183.50Q299 1042 299 711M916 1556L771 1556L540 1836L781 1836L916 1556Z"  horiz-adv-x="1593" vert-adv-y="2048"  />

      
      <glyph glyph-name="unida" unicode="&#xda;" d="M1120 1466L1314 1466L1314 619Q1314 398 1264 268Q1214 138 1083.50 56.50Q953-25 741-25Q535-25 404 46Q273 117 217 251.50Q161 386 161 619L161 1466L355 1466L355 620Q355 429 390.50 338.50Q426 248 512.50 199Q599 150 724 150Q938 150 1029 247Q1120 344 1120 620L1120 1466M614 1556L747 1836L983 1836L763 1556L614 1556Z"  horiz-adv-x="1479" vert-adv-y="2048"  />

      
      <glyph glyph-name="unidb" unicode="&#xdb;" d="M1120 1466L1314 1466L1314 619Q1314 398 1264 268Q1214 138 1083.50 56.50Q953-25 741-25Q535-25 404 46Q273 117 217 251.50Q161 386 161 619L161 1466L355 1466L355 620Q355 429 390.50 338.50Q426 248 512.50 199Q599 150 724 150Q938 150 1029 247Q1120 344 1120 620L1120 1466M736 1726L623 1556L417 1556L633 1836L825 1836L1050 1556L846 1556L736 1726Z"  horiz-adv-x="1479" vert-adv-y="2048"  />

      
      <glyph glyph-name="unid9" unicode="&#xd9;" d="M1120 1466L1314 1466L1314 619Q1314 398 1264 268Q1214 138 1083.50 56.50Q953-25 741-25Q535-25 404 46Q273 117 217 251.50Q161 386 161 619L161 1466L355 1466L355 620Q355 429 390.50 338.50Q426 248 512.50 199Q599 150 724 150Q938 150 1029 247Q1120 344 1120 620L1120 1466M854 1556L709 1556L478 1836L719 1836L854 1556Z"  horiz-adv-x="1479" vert-adv-y="2048"  />

      
      <glyph glyph-name="uni0131" unicode="&#x0131;" d="M198 0L198 1062L378 1062L378 0L198 0Z"  horiz-adv-x="569" vert-adv-y="2048"  />

      
      <glyph glyph-name="uni02C6" unicode="&#x02C6;" d="M344 1364L231 1194L25 1194L241 1474L433 1474L658 1194L454 1194L344 1364Z"  horiz-adv-x="682" vert-adv-y="2048"  />

      
      <glyph glyph-name="uni02DC" unicode="&#x02DC;" d="M7 1219Q6 1323 64 1385Q121 1447 210 1447Q272 1447 379 1393Q438 1363 473 1363Q505 1363 522 1380.50Q539 1398 546 1450L676 1450Q673 1336 618.50 1279Q564 1222 480 1222Q417 1222 314 1278Q247 1314 216 1314Q182 1314 161 1290Q139 1266 140 1219L7 1219Z"  horiz-adv-x="682" vert-adv-y="2048"  />

      
      <glyph glyph-name="uni02C9" unicode="&#x02C9;" d="M29 1227L29 1375L653 1375L653 1227L29 1227Z"  horiz-adv-x="682" vert-adv-y="2048"  />

      
      <glyph glyph-name="uni02D8" unicode="&#x02D8;" d="M514 1464L637 1464Q622 1339 545.50 1272Q469 1205 342 1205Q214 1205 137.50 1271.50Q61 1338 46 1464L169 1464Q183 1396 224.50 1362.50Q266 1329 336 1329Q417 1329 458.50 1361.50Q500 1394 514 1464Z"  horiz-adv-x="682" vert-adv-y="2048"  />

      
      <glyph glyph-name="uni02D9" unicode="&#x02D9;" d="M229 1194L229 1418L452 1418L452 1194L229 1194Z"  horiz-adv-x="682" vert-adv-y="2048"  />

      
      <glyph glyph-name="uni02DA" unicode="&#x02DA;" d="M162 1338Q162 1411 215.50 1464Q269 1517 342 1517Q416 1517 469 1463.50Q522 1410 522 1334Q522 1257 469 1204Q416 1151 343 1151Q268 1151 215 1204.50Q162 1258 162 1338M238 1337Q238 1290 269.50 1258Q301 1226 344 1226Q387 1226 418.50 1258Q450 1290 450 1335Q450 1380 419 1412Q388 1444 344 1444Q301 1444 269.50 1412.50Q238 1381 238 1337Z"  horiz-adv-x="682" vert-adv-y="2048"  />

      
      <glyph glyph-name="unib8" unicode="&#xb8;" d="M216-154L268 23L402 23L369-84Q454-94 497-136.50Q540-179 540-231Q540-306 468-363.50Q396-421 251-421Q169-421 107-409L118-292Q182-296 212-296Q306-296 344-270Q373-250 373-221Q373-203 361.50-189Q350-175 319-165Q288-155 216-154Z"  horiz-adv-x="682" vert-adv-y="2048"  />

      
      <glyph glyph-name="uni02DD" unicode="&#x02DD;" d="M58 1194L179 1474L413 1474L202 1194L58 1194M405 1194L532 1474L763 1474L556 1194L405 1194Z"  horiz-adv-x="682" vert-adv-y="2048"  />

      
      <glyph glyph-name="uni02DB" unicode="&#x02DB;" d="M345 0Q288-35 256.50-86.50Q225-138 225-191Q225-233 248-262Q271-291 323-291Q346-291 370-284.50Q394-278 414-267L414-395Q341-430 278-430Q227-430 189-415.50Q151-401 125.50-375.50Q100-350 87.50-317Q75-284 75-246Q75-182 111-117.50Q147-53 213 0L345 0Z"  horiz-adv-x="682" vert-adv-y="2048"  />

      
      <glyph glyph-name="uni02C7" unicode="&#x02C7;" d="M359 1304L469 1474L673 1474L448 1194L256 1194L40 1474L246 1474L359 1304Z"  horiz-adv-x="682" vert-adv-y="2048"  />

      
      <glyph glyph-name="uni0141" unicode="&#x0141;" d="M145 565L0 442L0 609L145 733L145 1466L339 1466L339 898L671 1179L671 1012L339 731L339 173L1067 173L1067 0L145 0L145 565Z"  horiz-adv-x="1139" vert-adv-y="2048"  />

      
      <glyph glyph-name="uni0142" unicode="&#x0142;" d="M133 574L3 464L3 622L133 732L133 1466L312 1466L312 884L447 999L447 842L312 727L312 0L133 0L133 574Z"  horiz-adv-x="455" vert-adv-y="2048"  />

      
      <glyph glyph-name="uni0160" unicode="&#x0160;" d="M92 471L275 487Q288 377 335.50 306.50Q383 236 483 192.50Q583 149 708 149Q819 149 904 182Q989 215 1030.50 272.50Q1072 330 1072 398Q1072 467 1032 518.50Q992 570 900 605Q841 628 639 676.50Q437 725 356 768Q251 823 199.50 904.50Q148 986 148 1087Q148 1198 211 1294.50Q274 1391 395 1441Q516 1491 664 1491Q827 1491 951.50 1438.50Q1076 1386 1143 1284Q1210 1182 1215 1053L1029 1039Q1014 1178 927.50 1249Q841 1320 672 1320Q496 1320 415.50 1255.50Q335 1191 335 1100Q335 1021 392 970Q448 919 684.50 865.50Q921 812 1009 772Q1137 713 1198 622.50Q1259 532 1259 414Q1259 297 1192 193.50Q1125 90 999.50 32.50Q874-25 717-25Q518-25 383.50 33Q249 91 172.50 207.50Q96 324 92 471M655 1660L765 1830L969 1830L744 1550L552 1550L336 1830L542 1830L655 1660Z"  horiz-adv-x="1366" vert-adv-y="2048"  />

      
      <glyph glyph-name="uni0161" unicode="&#x0161;" d="M63 317L241 345Q256 238 324.50 181Q393 124 516 124Q640 124 700 174.50Q760 225 760 293Q760 354 707 389Q670 413 523 450Q325 500 248.50 536.50Q172 573 132.50 637.50Q93 702 93 780Q93 851 125.50 911.50Q158 972 214 1012Q256 1043 328.50 1064.50Q401 1086 484 1086Q609 1086 703.50 1050Q798 1014 843 952.50Q888 891 905 788L729 764Q717 846 659.50 892Q602 938 497 938Q373 938 320 897Q267 856 267 801Q267 766 289 738Q311 709 358 690Q385 680 517 644Q708 593 783.50 560.50Q859 528 902 466Q945 404 945 312Q945 222 892.50 142.50Q840 63 741 19.50Q642-24 517-24Q310-24 201.50 62Q93 148 63 317M507 1304L617 1474L821 1474L596 1194L404 1194L188 1474L394 1474L507 1304Z"  horiz-adv-x="1024" vert-adv-y="2048"  />

      
      <glyph glyph-name="uni017D" unicode="&#x017D;" d="M41 0L41 180L792 1119Q872 1219 944 1293L126 1293L126 1466L1176 1466L1176 1293L353 276L264 173L1200 173L1200 0L41 0M635 1660L745 1830L949 1830L724 1550L532 1550L316 1830L522 1830L635 1660Z"  horiz-adv-x="1251" vert-adv-y="2048"  />

      
      <glyph glyph-name="uni017E" unicode="&#x017E;" d="M40 0L40 146L716 922Q601 916 513 916L80 916L80 1062L948 1062L948 943L373 269L262 146Q383 155 489 155L980 155L980 0L40 0M543 1304L653 1474L857 1474L632 1194L440 1194L224 1474L430 1474L543 1304Z"  horiz-adv-x="1024" vert-adv-y="2048"  />

      
      <glyph glyph-name="unia6" unicode="&#xa6;" d="M345 1491L345 701L188 701L188 1491L345 1491M345 360L345-431L188-431L188 360L345 360Z"  horiz-adv-x="532" vert-adv-y="2048"  />

      
      <glyph glyph-name="unid0" unicode="&#xd0;" d="M158 0L158 667L-3 667L-3 799L158 799L158 1466L664 1466Q834 1466 924 1445Q1050 1416 1139 1340Q1255 1242 1312.50 1089.50Q1370 937 1370 741Q1370 517 1299 355.50Q1228 194 1129 121Q1030 48 901 17Q830 0 687 0L158 0M352 173L665 173Q811 173 893 200Q975 227 1023 275Q1092 344 1131 460Q1170 576 1170 743Q1170 915 1131.50 1018Q1093 1121 1031 1183Q969 1245 893 1269Q817 1293 660 1293L352 1293L352 799L756 799L756 667L352 667L352 173Z"  horiz-adv-x="1479" vert-adv-y="2048"  />

      
      <glyph glyph-name="unif0" unicode="&#xf0;" d="M308 1466L525 1466Q597 1412 650 1364L864 1466L909 1364L737 1281Q1057 913 1057 521Q1057 268 918 121.50Q779-25 564-25Q309-25 166 169Q73 296 73 517Q73 778 202 920Q331 1062 525 1062Q583 1062 627 1050Q671 1038 737 1003Q701 1076 674 1116.50Q647 1157 595 1216L320 1089L276 1192L515 1301Q418 1391 308 1466M870 529Q870 721 779.50 822.50Q689 924 557 924Q427 924 342 822.50Q257 721 257 512Q257 318 344.50 220Q432 122 563 122Q691 122 780.50 225.50Q870 329 870 529Z"  horiz-adv-x="1139" vert-adv-y="2048"  />

      
      <glyph glyph-name="unidd" unicode="&#xdd;" d="M571 0L571 621L6 1466L242 1466L531 1024Q611 900 680 776Q746 891 840 1035L1124 1466L1350 1466L765 621L765 0L571 0M555 1556L688 1836L924 1836L704 1556L555 1556Z"  horiz-adv-x="1366" vert-adv-y="2048"  />

      
      <glyph glyph-name="unifd" unicode="&#xfd;" d="M127-409L107-240Q166-256 210-256Q270-256 306-236Q342-216 365-180Q382-153 420-46Q425-31 436-2L33 1062L227 1062L448 447Q491 330 525 201Q556 325 599 443L826 1062L1006 1062L602-18Q537-193 501-259Q453-348 391-389.50Q329-431 243-431Q191-431 127-409M420 1194L553 1474L789 1474L569 1194L420 1194Z"  horiz-adv-x="1024" vert-adv-y="2048"  />

      
      <glyph glyph-name="unide" unicode="&#xde;" d="M158 0L158 1466L352 1466L352 1168L711 1168Q857 1168 935 1154Q1043 1135 1116 1084.50Q1189 1034 1233 943Q1277 852 1277 743Q1277 557 1158 427.50Q1039 298 728 298L352 298L352 0L158 0M352 471L731 471Q919 471 998 541Q1077 611 1077 737Q1077 828 1031 894Q985 960 909 981Q860 995 727 995L352 995L352 471Z"  horiz-adv-x="1366" vert-adv-y="2048"  />

      
      <glyph glyph-name="unife" unicode="&#xfe;" d="M135-407L135 1466L315 1466L315 950Q388 1027 443 1052Q515 1086 607 1086Q743 1086 847 1016Q951 946 1004 818.50Q1057 691 1057 539Q1057 375 998.50 245Q940 115 828.50 45.50Q717-24 595-24Q512-24 441 9Q387 35 315 110L315-407L135-407M298 525Q298 320 381 222Q464 124 582 124Q702 124 787.50 225.50Q873 327 873 540Q873 743 789.50 844Q706 945 590 945Q475 945 386.50 837.50Q298 730 298 525Z"  horiz-adv-x="1139" vert-adv-y="2048"  />

      
      <glyph glyph-name="uni2212" unicode="&#x2212;" d="M1082 639L114 639L114 807L1082 807L1082 639Z"  horiz-adv-x="1196" vert-adv-y="2048"  />

      
      <glyph glyph-name="unid7" unicode="&#xd7;" d="M161 409L476 724L162 1038L284 1160L598 846L911 1159L1031 1038L719 725L1033 411L911 289L597 603L282 288L161 409Z"  horiz-adv-x="1196" vert-adv-y="2048"  />

      
      <glyph glyph-name="unib9" unicode="&#xb9;" d="M331 733L331 1287Q229 1206 107 1174L107 1297Q169 1317 245 1370Q321 1423 368 1484L476 1484L476 733L331 733Z"  horiz-adv-x="682" vert-adv-y="2048"  />

      
      <glyph glyph-name="unib2" unicode="&#xb2;" d="M25 733Q31 790 72 847Q135 933 279 1037.50Q423 1142 450 1172Q487 1213 487 1256Q487 1304 452 1335Q417 1366 349 1366Q283 1366 250.50 1342.50Q218 1319 197 1252L46 1268Q75 1379 146.50 1431.50Q218 1484 352 1484Q503 1484 573.50 1425Q644 1366 644 1281Q644 1197 585 1122Q540 1066 380 951Q297 890 262 854L648 854L648 733L25 733Z"  horiz-adv-x="682" vert-adv-y="2048"  />

      
      <glyph glyph-name="unib3" unicode="&#xb3;" d="M33 929L179 944Q199 884 231 862Q274 832 333 832Q404 832 447 871Q490 910 490 965Q490 1015 454 1045Q418 1075 331 1075Q319 1075 298 1073Q284 1072 276 1072L298 1182Q379 1181 416.50 1211Q454 1241 454 1284Q454 1321 424 1347Q394 1373 335 1373Q279 1373 247.50 1351Q216 1329 193 1271L50 1294Q91 1400 153.50 1442Q216 1484 336 1484Q480 1484 545.50 1430.50Q611 1377 611 1297Q611 1242 575.50 1199Q540 1156 473 1137Q562 1115 604 1064.50Q646 1014 646 946Q646 853 567 784Q488 715 342 715Q202 715 128 770.50Q54 826 33 929Z"  horiz-adv-x="682" vert-adv-y="2048"  />

      
      <glyph glyph-name="unibd" unicode="&#xbd;" d="M228-57L1329 1491L1486 1491L385-57L228-57M331 733L331 1287Q229 1206 107 1174L107 1297Q169 1317 245 1370Q321 1423 368 1484L476 1484L476 733L331 733M1049-31Q1055 25 1097 82Q1159 169 1303 273Q1447 377 1474 408Q1511 449 1511 492Q1511 540 1476.50 570.50Q1442 601 1373 601Q1307 601 1274.50 577.50Q1242 554 1221 488L1070 503Q1099 615 1171 667.50Q1243 720 1376 720Q1527 720 1597.50 661Q1668 602 1668 517Q1668 433 1609 358Q1564 302 1405 186Q1321 125 1286 90L1672 90L1672-31L1049-31Z"  horiz-adv-x="1708" vert-adv-y="2048"  />

      
      <glyph glyph-name="unibc" unicode="&#xbc;" d="M252-57L1354 1491L1510 1491L409-57L252-57M331 733L331 1287Q229 1206 107 1174L107 1297Q169 1317 245 1370Q321 1423 368 1484L476 1484L476 733L331 733M1430-31L1430 123L1047 123L1047 246L1452 720L1574 720L1574 231L1678 231L1678 123L1574 123L1574-31L1430-31M1430 231L1430 494L1200 231L1430 231Z"  horiz-adv-x="1708" vert-adv-y="2048"  />

      
      <glyph glyph-name="unibe" unicode="&#xbe;" d="M252-57L1353 1491L1510 1491L409-57L252-57M33 929L179 944Q199 884 231 862Q274 832 333 832Q404 832 447 871Q490 910 490 965Q490 1015 454 1045Q418 1075 334 1075Q284 1072 276 1072L298 1182Q379 1181 416.50 1211Q454 1241 454 1284Q454 1321 424 1347Q394 1373 335 1373Q279 1373 247.50 1351Q216 1329 193 1271L50 1294Q91 1400 153.50 1442Q216 1484 336 1484Q480 1484 545.50 1430.50Q611 1377 611 1297Q611 1242 575.50 1199Q540 1156 473 1137Q562 1115 604 1064.50Q646 1014 646 946Q646 853 567 784Q488 715 342 715Q202 715 128 770.50Q54 826 33 929M1429-31L1429 123L1047 123L1047 246L1451 720L1574 720L1574 231L1678 231L1678 123L1574 123L1574-31L1429-31M1429 231L1429 494L1200 231L1429 231Z"  horiz-adv-x="1708" vert-adv-y="2048"  />

      
      <glyph glyph-name="uni20A3" unicode="&#x20A3;" d="M168 246L0 246L0 395L168 395L168 1466L1037 1466L1037 1293L362 1293L362 839L930 839L930 666L362 666L362 395L677 395L677 246L362 246L362 0L168 0L168 246Z"  horiz-adv-x="1139" vert-adv-y="2048"  />

      
      <glyph glyph-name="uni011E" unicode="&#x011E;" d="M844 575L844 747L1465 748L1465 204Q1322 90 1170 32.50Q1018-25 858-25Q642-25 465.50 67.50Q289 160 199 335Q109 510 109 726Q109 940 198.50 1125.50Q288 1311 456 1401Q624 1491 843 1491Q1002 1491 1130.50 1439.50Q1259 1388 1332 1296Q1405 1204 1443 1056L1268 1008Q1235 1120 1186 1184Q1137 1248 1046 1286.50Q955 1325 844 1325Q711 1325 614 1284.50Q517 1244 457.50 1178Q398 1112 365 1033Q309 897 309 738Q309 542 376.50 410Q444 278 573 214Q702 150 847 150Q973 150 1093 198.50Q1213 247 1275 302L1275 575L844 575M1040 1815L1163 1815Q1148 1690 1071.50 1623Q995 1556 868 1556Q740 1556 663.50 1622.50Q587 1689 572 1815L695 1815Q709 1747 750.50 1713.50Q792 1680 862 1680Q943 1680 984.50 1712.50Q1026 1745 1040 1815Z"  horiz-adv-x="1593" vert-adv-y="2048"  />

      
      <glyph glyph-name="uni011F" unicode="&#x011F;" d="M102-88L277-114Q288-195 338-232Q405-282 521-282Q646-282 714-232Q782-182 806-92Q820-37 819 139Q701 0 525 0Q306 0 186 158Q66 316 66 537Q66 689 121 817.50Q176 946 280.50 1016Q385 1086 526 1086Q714 1086 836 934L836 1062L1002 1062L1002 144Q1002-104 951.50-207.50Q901-311 791.50-371Q682-431 522-431Q332-431 215-345.50Q98-260 102-88M251 550Q251 341 334 245Q417 149 542 149Q666 149 750 244.50Q834 340 834 544Q834 739 747.50 838Q661 937 539 937Q419 937 335 839.50Q251 742 251 550M742 1464L865 1464Q850 1339 773.50 1272Q697 1205 570 1205Q442 1205 365.50 1271.50Q289 1338 274 1464L397 1464Q411 1396 452.50 1362.50Q494 1329 564 1329Q645 1329 686.50 1361.50Q728 1394 742 1464Z"  horiz-adv-x="1139" vert-adv-y="2048"  />

      
      <glyph glyph-name="uni0130" unicode="&#x0130;" d="M191 0L191 1466L385 1466L385 0L191 0M177 1556L177 1780L400 1780L400 1556L177 1556Z"  horiz-adv-x="569" vert-adv-y="2048"  />

      
      <glyph glyph-name="uni015E" unicode="&#x015E;" d="M92 471L275 487Q288 377 335.50 306.50Q383 236 483 192.50Q583 149 708 149Q819 149 904 182Q989 215 1030.50 272.50Q1072 330 1072 398Q1072 467 1032 518.50Q992 570 900 605Q841 628 639 676.50Q437 725 356 768Q251 823 199.50 904.50Q148 986 148 1087Q148 1198 211 1294.50Q274 1391 395 1441Q516 1491 664 1491Q827 1491 951.50 1438.50Q1076 1386 1143 1284Q1210 1182 1215 1053L1029 1039Q1014 1178 927.50 1249Q841 1320 672 1320Q496 1320 415.50 1255.50Q335 1191 335 1100Q335 1021 392 970Q448 919 684.50 865.50Q921 812 1009 772Q1137 713 1198 622.50Q1259 532 1259 414Q1259 297 1192 193.50Q1125 90 999.50 32.50Q874-25 717-25Q518-25 383.50 33Q249 91 172.50 207.50Q96 324 92 471M555-144L607 33L741 33L708-74Q793-84 836-126.50Q879-169 879-221Q879-296 807-353.50Q735-411 590-411Q508-411 446-399L457-282Q521-286 551-286Q645-286 683-260Q712-240 712-211Q712-193 700.50-179Q689-165 658-155Q627-145 555-144Z"  horiz-adv-x="1366" vert-adv-y="2048"  />

      
      <glyph glyph-name="uni015F" unicode="&#x015F;" d="M63 317L241 345Q256 238 324.50 181Q393 124 516 124Q640 124 700 174.50Q760 225 760 293Q760 354 707 389Q670 413 523 450Q325 500 248.50 536.50Q172 573 132.50 637.50Q93 702 93 780Q93 851 125.50 911.50Q158 972 214 1012Q256 1043 328.50 1064.50Q401 1086 484 1086Q609 1086 703.50 1050Q798 1014 843 952.50Q888 891 905 788L729 764Q717 846 659.50 892Q602 938 497 938Q373 938 320 897Q267 856 267 801Q267 766 289 738Q311 709 358 690Q385 680 517 644Q708 593 783.50 560.50Q859 528 902 466Q945 404 945 312Q945 222 892.50 142.50Q840 63 741 19.50Q642-24 517-24Q310-24 201.50 62Q93 148 63 317M375-134L427 43L561 43L528-64Q613-74 656-116.50Q699-159 699-211Q699-286 627-343.50Q555-401 410-401Q328-401 266-389L277-272Q341-276 371-276Q465-276 503-250Q532-230 532-201Q532-183 520.50-169Q509-155 478-145Q447-135 375-134Z"  horiz-adv-x="1024" vert-adv-y="2048"  />

      
      <glyph glyph-name="uni0106" unicode="&#x0106;" d="M1204 514L1398 465Q1337 226 1178.50 100.50Q1020-25 791-25Q554-25 405.50 71.50Q257 168 179.50 351Q102 534 102 744Q102 973 189.50 1143.50Q277 1314 438.50 1402.50Q600 1491 794 1491Q1014 1491 1164 1379Q1314 1267 1373 1064L1182 1019Q1131 1179 1034 1252Q937 1325 790 1325Q621 1325 507.50 1244Q394 1163 348 1026.50Q302 890 302 745Q302 558 356.50 418.50Q411 279 526 210Q641 141 775 141Q938 141 1051 235Q1164 329 1204 514M663 1556L796 1836L1032 1836L812 1556L663 1556Z"  horiz-adv-x="1479" vert-adv-y="2048"  />

      
      </font>
</defs>
</svg>
